<svg xmlns="http://www.w3.org/2000/svg" viewBox="0 0 1122 1122"><path d="M328.511 146.101c.363-.514-.314-1.268-.763-.715-6.768 8.336-13.43 16.718-19.693 25.445-.601.837.522 2.08 1.249 1.171 6.721-8.409 12.999-17.113 19.207-25.901zM318.471 166.348c2.169-3.749 4.173-7.598 6.254-11.396.281-.513-.391-1.271-.728-.683-2.17 3.788-4.423 7.537-6.505 11.375-.314.578.604 1.352.979.704zM320.586 169.196c1.698-3.24 3.25-6.561 4.859-9.846.289-.59-.568-1.114-.894-.477-1.662 3.257-3.388 6.491-4.96 9.792-.316.663.627 1.234.995.531zM324.544 169.212c1.036-1.936 1.935-3.945 2.875-5.929.289-.611-.574-1.133-.914-.488-1.023 1.941-2.09 3.864-3.017 5.854-.33.709.66 1.304 1.056.563z" fill="#fff"/><path d="M311.151 167.663c4.389-8.036 8.644-16.142 12.839-24.281.26-.504-.526-1.174-.847-.61-4.557 7.996-9.051 16.027-13.414 24.131-.496.921.878 1.756 1.422.76zM304.526 171.731c3.156-9.445 8.08-17.874 14.649-25.351.575-.655-.388-1.671-1.041-.976-6.952 7.409-11.868 15.943-14.929 25.622-.285.904.982 1.721 1.321.705zM348.383 171.74c1.854-3.147 3.588-6.354 5.315-9.573.274-.511-.523-1.192-.866-.623-1.853 3.07-3.691 6.143-5.42 9.285-.375.681.509 1.695.971.911zM351.513 171.849c1.779-2.914 3.274-6.039 4.882-9.051.274-.512-.535-1.197-.866-.623-1.703 2.949-3.558 5.861-5.09 8.902-.32.637.643 1.478 1.074.772zM354.468 173.821c1.797-2.897 3.218-6.076 4.853-9.07.267-.489-.518-1.146-.828-.596-1.672 2.96-3.61 5.835-5.117 8.881-.322.649.647 1.502 1.092.785zM354.954 178.038c1.917-3.697 3.547-7.57 5.296-11.349.276-.597-.573-1.118-.894-.477-1.861 3.721-3.868 7.408-5.56 11.208-.347.781.732 1.439 1.158.618zM357.63 180.598c1.794-3.526 3.375-7.157 5.011-10.759.272-.599-.572-1.116-.894-.477-1.779 3.529-3.614 7.034-5.234 10.639-.337.752.712 1.394 1.117.597zM359.755 183.043l3.928-6.873c.315-.552-.423-1.357-.781-.732a24059.91 24059.91 0 01-3.928 6.873c-.314.552.424 1.357.781.732zM357.949 191.032c2.923-5.068 5.559-10.284 8.25-15.478.243-.469-.487-1.094-.791-.569-2.918 5.051-5.882 10.069-8.57 15.247-.342.66.686 1.538 1.111.8zM352.788 203.631c5.082-8.083 9.826-16.385 14.57-24.669.304-.531-.386-1.324-.763-.715-5.017 8.104-10.045 16.218-14.726 24.523-.36.637.456 1.596.919.861zM346.052 223.348c7.262-12.48 14.107-25.213 21.122-37.833.279-.502-.385-1.239-.711-.667-7.152 12.581-14.486 25.076-21.391 37.795-.313.579.603 1.352.98.705zM375.826 154.343c-8.142-8.042-20.525-9.769-30.612-4.388-.254.135-.105.626.168.485 9.92-5.122 22.003-3.262 30.012 4.501.359.347.747-.287.432-.598zM307.41 198.672c-7.625-1.83-15.45-.11-21.826 4.399-.232.164.008.588.265.412 6.379-4.355 13.926-5.604 21.439-3.956.507.111.598-.741.122-.855zM332.389 212.47c-3.744-4.268-9.245-7.161-14.618-8.783-.329-.099-.452.488-.161.607 5.45 2.216 9.622 5.387 14.048 9.189.662.568 1.209-.468.731-1.013z" fill="#fff"/><g fill="#fff"><path d="M317.41 408.31a32.496 32.496 0 01-4.419-1.367c-15.292-5.945-20.378-21.448-23.129-36.196-5.175-27.744-6.844-55.894-7.303-84.064-.01-.633-1.063-.82-1.097-.115-.959 19.72-.116 39.456 2.049 59.075 1.766 16.004 2.754 34.479 10.83 48.76 5.439 9.619 14.054 15.375 23.401 17.387a224.954 224.954 0 01-.332-3.48zM339.378 288.785a6.108 6.108 0 01-.653-.857c-.837-1.34-1.655-2.691-2.473-4.041 1.13 14.591 3.154 29.203 4.677 43.728 1.663 15.867 5.08 32.598-3.916 46.942-.57.909.857 1.771 1.52.996 9.471-11.065 7.595-26.265 6.414-39.738-1.158-13.205-2-26.537-3.253-39.788-.71-2.435-1.458-4.855-2.316-7.242z"/><path d="M336.716 283.121c-2.869-5.226-11.209-9.453-16.606-5.326-1.053.806.22 2.02 1.137 1.998 4.825-.114 9.241.397 12.144 4.75 1.259 1.886 4.589.88 3.325-1.422zM349.059 261.708c-7.38-6.425-19.554-10.877-29.012-6.748-.512.224-.19.905.263.953 9.661 1.026 18.668 1.619 26.356 8.453 7.346 6.53 10.637 15.765 10.858 25.404.038 1.655 2.695 2.124 2.852.3.923-10.649-3.208-21.302-11.317-28.362zM342.171 349.038c-4.606-5.231-11.81-5.501-17.715-2.025-9.303 5.476-10.243 17.975-10.631 27.603-1.216 30.109 3.24 63.488 16.357 90.875.708 1.477 3.516 1.007 2.929-.813-6.67-20.684-13.007-40.418-14.99-62.251-.883-9.729-1.263-19.634-.637-29.393.717-11.19 7.59-34.176 23.595-22.78a.818.818 0 001.092-1.216z"/><path d="M359.66 444.984c-16.454-24.251-22.92-53.075-19.283-82.089.087-.696-1.257-1.07-1.367-.313-4.283 29.384 2.387 58.413 18.385 83.372.856 1.336 3.24.467 2.265-.97z"/><path d="M417.278 443.074a4.615 4.615 0 012.109.258c4.766 1.735 9.689 3.398 14.498 5.315-10.872-7.499-23.466-12.767-36.382-14.778-8.283-25.268-2.117-68.012-27.97-84.148a119.116 119.116 0 01-.559 3.433c22.024 19.079 15.745 53.837 24.102 80.169-7.486-.727-15.014-.305-22.322 1.389-.165-15.504-3.857-32.702-11.944-45.897-.379-.618-1.579-.505-1.341.372 4.299 15.867 7.885 30.218 8.594 46.79l.004.014c-3.517 1.108-6.973 2.5-10.321 4.276-.637.338-.183 1.324.488 1.172 19.136-4.336 36.823-6.912 55.968-.332a78.294 78.294 0 015.076 1.967zM400.979 548.704c-31.881-14.426-69.913-34.228-65.843-75.402.059-.598-1.029-.916-1.175-.269-8.939 39.469 31.484 63.701 62.033 77.985.239.564.676 1.042 1.382 1.204l2.445.563c3.021.695 3.826-2.874 1.158-4.081zM401.161 514.043c-7.526-2.483-14.271-5.334-20.207-10.793-5.605-5.156-8.932-11.315-12.656-17.8-.229-.399-1.184-.487-1.093.156 2.211 15.639 18.449 29.504 33.432 32.343 2.526.478 2.671-3.198.524-3.906zM416.734 470.881c-11.922-12.516-31.607-18.146-48.191-12.925-1.001.315-.158 1.656.654 1.571 17.296-1.816 31.42 2.237 44.448 13.889 1.99 1.78 5.143-.378 3.089-2.535z"/><path d="M400.88 461.863c-5.367 10.607-12.338 19.141-24.382 22.289-12.846 3.358-27.31-1.127-35.988-11.209-.477-.554-1.292.075-.815.669 8.724 10.876 21.084 17.781 35.431 15.676 13.428-1.971 26.125-12.232 29.868-25.378.606-2.126-3.004-4.241-4.114-2.047zM369.122 307.088c-.41-2.216-4.548-2.532-4.409.073 1.037 19.404 4.615 38.26.507 57.643-3.501 16.52-11.665 29.622-23.943 41.024-.563.523.185 1.478.847 1.148 34.607-17.209 32.9-68.024 26.998-99.888z"/><path d="M384.529 456.022c-3.276 2.766-6.479 5.249-11.096 4.455-4.253-.731-7.161-3.776-9.078-7.43-.332-.633-1.76-.71-1.64.234 1.475 11.536 19.081 16.336 24.912 5.343.95-1.792-1.464-3.982-3.098-2.602zM489.131 585.999c-15.677-8.707-30.913-18.133-45.454-28.64-15.204-10.987-34.269-22.987-37.684-42.887-.1-.585-1.164-.657-1.15.019.344 16.849 14.492 28.123 26.621 37.888 15.831 12.744 32.717 24.148 50.354 34.234.088.736.521 1.467 1.335 1.735l4.269 1.402c2.439.8 4.027-2.463 1.709-3.751zM496.376 544.858c-4.7-10.782-20.166-16.974-29.515-22.825-13.929-8.717-27.779-17.828-42.364-25.418-1.255-.653-2.225.773-1.084 1.654 11.456 8.843 23.789 16.568 35.887 24.494 11.056 7.243 25.312 13.688 33.473 24.274 1.6 2.075 4.632.18 3.603-2.179zM494.699 548.696c-2.09.344-4.102 1.261-6.079 2.005-1.967.741-4.185 1.441-5.766 2.873-1.094.992.104 2.707 1.419 2.493 1.971-.32 3.811-1.359 5.534-2.342 1.88-1.073 4.092-2.156 5.701-3.609.625-.563-.06-1.543-.809-1.42zM480.975 553.496c-.216-.486-1.112-.321-.939.261.827 2.779 1.419 5.704 2.638 8.342.42.909 2.075.61 1.766-.49-.791-2.814-2.281-5.45-3.465-8.113zM482.667 564.422c-2.894.377-5.951 1.05-8.656 2.196-1.826.773-.115 3.159 1.499 2.645 2.714-.866 5.36-2.299 7.708-3.873.51-.342-.099-1.027-.551-.968z"/><path d="M485.642 576.314c-3.946-.653-7.943-1.495-11.942-1.826a14.32 14.32 0 01.771-2.218c.266-.591-.803-1.014-1.085-.386a12.106 12.106 0 01-1.745 2.859c-.407.508.103 1.236.597 1.412 3.717 1.323 7.65 2.123 11.508 3.007-.217 1.759-.442 3.533-.429 5.293.012 1.601 2.861 2.616 3.263.746.497-2.311.598-4.709.813-7.06.088-.964-.926-1.691-1.751-1.827zM504.893 570.773c-1.764-.505-3.669-.409-5.496-.491-1.533-.068-3.212-.359-4.67.194-.401.152-.32.707-.002.898 1.386.829 3.114.948 4.686 1.223 1.804.316 3.659.836 5.492.713 1.478-.098 1.171-2.199-.01-2.537zM504.818 561.687c-1.391-1.022-2.754-2.084-4.123-3.138 3.872-4.008 1.729-12.239-3.416-14.207-.802-.307-1.102.687-.521 1.145 4.186 3.306 3.554 8.341.439 12.109-1.067 1.291 1.042 2.571 2.207 1.984a311.09 311.09 0 012.959 3.117c-1.436 1.75-2.743 3.608-4.002 5.487-.868 1.296 1.256 2.588 2.217 1.453 1.666-1.967 3.33-3.965 4.743-6.126.422-.645.055-1.414-.503-1.824zM496.024 583.615c-2.994 1.075-5.949 2.266-8.939 3.36-.741.271-.052 1.273.604 1.066 3.072-.969 6.176-1.84 9.241-2.827 1.093-.351.101-1.961-.906-1.599zM425.49 478.193c-.637-.333-1.192.445-.56.855 12.675 8.208 26.223 16.977 29.741 32.691.51 2.279 4.466 1.978 3.814-.544-4.304-16.635-18.675-25.512-32.995-33.002zM485.325 486.96c-7.477-16.659-24.343-26.057-39.892-33.914-.818-.413-1.551.604-.718 1.096 12.887 7.621 26.707 15.282 34.688 28.489 8.241 13.635 6.634 29.367-2.889 41.824-1.488 1.946 2.064 4.265 3.569 2.338 8.868-11.35 11.192-26.575 5.242-39.833z"/><path d="M422.784 478.433c-18.861 3.695-26.514 27.301-16.622 42.592.281.435 1.252.37 1.006-.279-3.146-8.284-3.788-17.182.523-25.246 3.751-7.017 9.741-10.164 16.612-13.417 2.089-.987.515-4.048-1.519-3.65zM535.558 514.207c-15.7-12.441-33.001-23.393-51.848-30.395-.584-.217-.976.619-.412.904 18.047 9.092 35.087 18.922 50.787 31.739 1.498 1.223 2.982-1.053 1.473-2.248z"/><path d="M532.509 515.516c-9.207.549-23.083 1.753-25.03 13.221-.183 1.08 1.444 1.809 1.864.664 3.742-10.206 13.62-12.264 23.406-13.013.612-.048.295-.904-.24-.872zM511.638 538.762c-1.147-1.136-2.674-2.215-4.313-2.553.037-.319.067-.639.106-.959.1-.809-1.31-1.185-1.559-.356-.179.598-.351 1.196-.56 1.784-.186.524.271.998.697 1.196.75.348 1.433.625 2.064.984-.906.571-1.565 1.494-1.535 2.619.039 1.438 2.037 1.934 2.639.603.315-.697.646-1.342 1.54-1.321 1.077.024 1.761-1.165.921-1.997zM539.724 529.584c-.693-.83-2.623-.346-2.106.906.608 1.474-.5 2.454-1.261 3.585a6.1 6.1 0 00-1.026 2.749c-.174 1.442.192 2.773.942 3.943-.417-.084-.834-.029-1.126.281-2.816 2.993-5.059 5.771-8.928 7.48-3.979 1.758-14.513 4.195-14.912-3.225-.031-.577-1.127-1.001-1.223-.279-.792 5.911 4.92 8.222 9.983 8.151 6.957-.099 14.661-3.96 17.626-10.459.12-.263.098-.53.011-.783.637-.034 1.22-.588.771-1.295-1.731-2.727.007-4.185 1.407-6.425.979-1.567 1.035-3.199-.158-4.629zM538.726 520.075c-.26-1.002-2.147-1.229-2.084.034.115 2.305.56 4.532 1.009 6.79.213 1.074 2.296 1.232 2.156-.036-.254-2.291-.501-4.551-1.081-6.788z"/><path d="M519.711 552.138c-2.839-5.306-5.773-10.563-8.665-15.84-.306-.559-1.246-.23-.91.39 2.863 5.291 5.686 10.606 8.601 15.867.331.596 1.33.249.974-.417zM521.551 549.108a2173.125 2173.125 0 00-11.949-20.376c-.301-.507-1.174-.208-.847.362a2158.76 2158.76 0 0011.885 20.403c.323.547 1.265.222.911-.389zM524.832 547.741c-4.511-8.41-9.334-16.666-14.071-24.95-.301-.526-1.189-.221-.868.371 4.539 8.382 9.01 16.82 13.775 25.077.405.704 1.591.299 1.164-.498zM529.67 546.847c-4.633-8.61-9.982-16.881-15.064-25.231-.313-.514-1.202-.216-.868.371 4.833 8.481 9.471 17.151 14.747 25.366.44.687 1.627.314 1.185-.506zM533.546 546.013c-4.311-8.702-9.055-17.201-13.681-25.738-.325-.6-1.317-.255-.974.417 4.417 8.64 8.738 17.355 13.469 25.828.406.725 1.594.316 1.186-.507zM536.599 540.152c-4-7.2-8.284-14.248-12.482-21.333-.361-.609-1.408-.25-1.016.435 4.084 7.146 8.095 14.348 12.376 21.379.404.664 1.547.284 1.122-.481zM537.529 532.566c-2.873-5.223-5.951-10.332-9.032-15.434-.403-.667-1.545-.285-1.122.48 2.881 5.209 5.773 10.417 8.862 15.506.465.767 1.777.331 1.292-.552zM481.337 576.537c-2.113-3.011-4.384-5.915-6.592-8.857-.331-.44-1.166-.003-.809.489 2.158 2.975 4.263 5.999 6.515 8.904.368.475 1.271.013.886-.536zM488.973 581.984c-2.98-5.222-6.283-10.252-9.5-15.331-.352-.556-1.329-.235-.952.408 3.03 5.177 5.98 10.407 9.246 15.44.45.694 1.676.306 1.206-.517zM493.228 582.581c-3.451-6.408-7.657-12.491-11.513-18.662-.357-.571-1.355-.24-.974.417 3.645 6.276 7.051 12.813 11.09 18.843.53.791 1.922.375 1.397-.598zM496.658 579.801c-3.763-7.756-8.408-15.219-12.755-22.661-.379-.65-1.468-.282-1.079.462 3.987 7.628 7.837 15.513 12.395 22.815.528.847 1.93.396 1.439-.616zM500.468 575.553c-4.492-6.928-8.965-13.673-12.745-21.038-.321-.626-1.309-.27-.995.426 3.376 7.48 7.29 14.952 12.276 21.498.604.791 2.066.042 1.464-.886zM498.506 562.383c-1.918-3.451-4.222-7.068-6.707-10.14-.414-.512-1.21-.052-.924.559 1.636 3.504 3.866 7.078 6.086 10.242.597.852 2.144.415 1.545-.661zM498.911 553.599c-.835-1.682-1.804-3.283-2.751-4.904-.344-.589-1.295-.266-.974.417.797 1.691 1.566 3.388 2.475 5.022.428.764 1.681.331 1.25-.535zM432.945 551.972c-8.634 2.736-16.483 2.308-24.785-1.332-1.059-.464-1.634 1.019-.732 1.607 8.058 5.258 18.532 6.55 27.632 3.457 2.591-.88.201-4.465-2.115-3.732zM486.741 610.025c-3.423-.909-7.052-1.318-10.574-1.828.911-2.881 1.81-5.767 2.655-8.668.138-.473-.63-.772-.814-.29a407.93 407.93 0 00-3.385 9.239c-.154.435.286.811.661.875 3.716.639 7.549 1.52 11.313 1.744.674.039.779-.904.144-1.072zM489.877 604.859c-1.169-1.072-2.482-1.998-3.733-2.972-1.348-1.049-2.678-2.208-4.141-3.092-.256-.155-.561.129-.332.369 1.08 1.133 2.375 2.097 3.581 3.094 1.031.852 2.057 1.735 3.119 2.559-.553 1.653-.849 3.627-.989 5.326-.049.601 1.06.933 1.188.272.302-1.576.522-3.398.49-5.061.075.054.144.118.22.171.444.31 1.03-.269.597-.666zM509.189 603.068c-.955-2.997-3.263-5.214-5.855-6.866-.778-.496-3.096-2.147-4.052-2.054-.439.043-.887.309-1.32.626l-.089-.316c-.194-.688-1.381-.614-1.177.168l.249.953c-.158.131-.317.265-.459.365-.244.172.08.529.314.426.113-.05.211-.088.317-.133.617 2.358 1.235 4.715 1.85 7.073l-.032-.058c-.348-.631-1.374-.275-1.027.44l2.57 5.293c.341.702 1.623.483 1.383-.384-1.177-4.261-2.396-8.511-3.601-12.764.986-.246 1.749-.079 2.948.711 1.767 1.165 3.532 2.413 4.731 4.192 2.595 3.849 1.459 10.008-4.309 8.957-1.069-.195-1.409 1.343-.523 1.81 5.446 2.874 9.652-3.51 8.082-8.439zM524.849 567.481c-1.024-1.042-2.697-1.305-3.791-.225a2.661 2.661 0 00-.361 3.34c-.112.22-.096.498.165.75 1.069 1.039 2.808 1.035 3.95.087 1.26-1.046 1.131-2.84.037-3.952zm-3.064 2.839a.773.773 0 00-.35-.11c-.476-1.453 1.133-3.369 2.385-1.847 1.15 1.397-.73 2.77-2.035 1.957zM513.18 550.141c-4.87-4.629-10.245-8.792-15.409-13.092-5.393-4.49-10.886-10.227-17.097-13.506-.331-.175-.634.129-.399.443 4.209 5.609 10.751 10.086 16.038 14.682 5.072 4.408 10.045 9.038 15.396 13.105 1.079.82 2.503-.651 1.471-1.632zM339.976 303.358a13.367 13.367 0 00-1.763-1.126c-.993-.58-2.257.527-1.307 1.453.141.137.267.247.399.371-3.946 2.244-8.241 2.993-12.809 3.008-.526.002-.623.688-.114.848 5.462 1.713 11.119.376 15.852-2.636.742-.474.283-1.542-.258-1.918zM364.734 282.503c11.033-18.404 17.333-39.824 22.228-60.575.149-.631-.911-1.058-1.085-.386-5.43 20.961-14.928 39.437-24.923 58.485a1.961 1.961 0 00-.196.71 117.337 117.337 0 00-5.167-9.595c-.332-.556-1.26-.248-.931.399 6.546 12.866 9.736 26.616 11.434 40.866.211 1.769 3.307 2.422 3.194.336-.577-10.647-3.353-20.55-7.62-29.983.938.778 2.329.972 3.066-.257zM348.614 297.523a.352.352 0 00.024-.323l-.415-1.13c-1.029-3.717-2.161-7.404-3.277-11.097-.206-.681-1.382-.616-1.177.168 1.37 5.226 2.7 10.459 4.342 15.608.236.741 1.508.686 1.294-.185-.25-1.017-.52-2.029-.791-3.041zM351.942 293.346c-1.489-4.3-3.423-8.477-5.112-12.703-.233-.582-1.311-.534-1.059.151 1.584 4.302 2.959 8.726 4.741 12.95.313.744 1.732.476 1.43-.398zM350.492 281.627c-.201-.636-1.311-.577-1.106.158.695 2.489 1.361 4.986 2.132 7.452.229.733 1.509.661 1.271-.181-.706-2.495-1.516-4.957-2.297-7.429z"/><path d="M327.148 306.761c-37.165 9.323-47.106-35.618-45.794-62.739 1.396-28.863 10.627-56.118 25.03-81.01.362-.625-.649-1.299-1.056-.692-19.308 28.845-29.975 65.427-27.198 100.226 2.045 25.624 20.442 56.787 50.573 47.954 2.254-.66.483-4.25-1.555-3.739z"/><path d="M346.452 161.963c-13.33 25.801-22.237 54.341-26.746 82.997-1.479 9.398-5.965 24.322-.28 32.913 3.151 4.762 8.867 6.702 13.546 3.19.518-.389-.169-1.115-.672-.911-17.533 7.11-10.448-26.882-9.276-34.012a299.089 299.089 0 015.618-26.629c5.016-19.32 12.298-37.592 20.661-55.681.802-1.734-1.941-3.628-2.851-1.867zM351.849 135.12c-.703.077-.348 1.077.278 1.008.704-.077.348-1.076-.278-1.008zM350.244 137.214c-.607.067-.3.93.24.871.608-.067.301-.931-.24-.871z"/><path d="M354.859 187.47c-7.85 22.052-15.078 44.312-22.101 66.641-.571 1.814 2.557 3.05 3.162 1.126 7.03-22.356 13.852-44.771 20.048-67.372.176-.644-.872-1.062-1.109-.395zM382.671 141.165c-17.183-15.228-43.386-14.751-60.259 1.067-.492.461.311 1.219.785.786 16.957-15.48 43.521-13.093 58.673 2.766 16.201 16.956 14.735 40.94 4.261 60.481-1.058 1.975 2.264 4.097 3.457 2.111 13.085-21.772 13.108-49.463-6.917-67.211z"/><path d="M354.285 177.179c-1.642-1.859-3.995-2.92-6.458-3.044-2.572-.129-4.285.583-5.881 2.452-.41.48.378 1.013.813.861 2.866-1.001 6.734-.982 8.883 1.465 2.342 2.666 1.503 6.867-.952 9.133-1.473 1.36.789 3.592 2.278 2.432 4.022-3.135 4.753-9.411 1.317-13.299z"/></g><path d="M575.831 580.62c-2.207.016-4.292-.452-6.331-1.139-.435 3.546-6.225 5.576-9.518 1.735-5.886-6.867-.928-17.775 4.627-22.93.512-.475 1.204.182.7.682-2.742 2.718-4.57 6.333-5.3 10.098-.334 1.722-.437 3.36-.281 5.108.027.904.165 1.792.412 2.663.83 4.185 2.814 4.598 5.953 1.239-1.047-1.167.425-2.947 1.802-2.353 2.755 1.188 5.506 1.697 8.376 2.42 1.404.353.902 2.467-.44 2.477zM577.812 578.48c-.539.369-.964-.339-.585-.775 6.974-8.027 9.458-17.567 4.356-27.331-.524-1.003 1.096-2.113 1.697-1.066 5.257 9.157 3.577 22.971-5.468 29.172z" fill="#fff"/><path d="M580.367 553.579c-4.29-3.384-11.481-2.959-14.813 1.62-.384.528-1.276.134-.861-.436 3.985-5.478 11.534-6.965 16.836-2.378.731.632-.42 1.779-1.162 1.194zM562.192 582.402c-.033.571-.948.72-.948.073-.004-6.255-.115-12.564.267-18.809.055-.898 1.489-1.135 1.493-.115.027 6.276-.449 12.587-.812 18.851zM563.943 581.372c-.051.594-1.028.758-.996.077.387-8.025.682-16.065 1.448-24.065.076-.787 1.362-1.014 1.328-.102-.307 8.046-1.092 16.07-1.78 24.09z" fill="#fff"/><path d="M566.491 579.421c-.064.621-1.102.79-1.043.08.814-9.763 1.389-19.583 2.546-29.311.098-.822 1.463-1.07 1.398-.108-.652 9.795-1.901 19.574-2.901 29.339zM573.166 553.807c-.783 8.945-1.612 17.885-2.434 26.827-.055.593-1.039.756-.995.077.661-10.321 1.299-20.644 2.026-30.961.061-.864 1.609-1.457 1.758-.36l.461 3.388c.071.522-.378.944-.816 1.029zM573.795 578.56c-.081.596-1.085.777-1.019.079.965-10.316 1.521-20.857 3.303-31.066.149-.854 1.574-1.188 1.517-.117-.553 10.378-2.411 20.806-3.801 31.104zM580.518 560.09a2185.971 2185.971 0 00-3.31 17.403c-.115.616-1.072.492-.95-.179a2147.839 2147.839 0 003.079-17.287c.14-.813 1.361-.858 1.181.063zM582.484 563.261c-.135.626-1.121.503-.973-.183l.565-2.623c.135-.626 1.121-.503.973.183l-.565 2.623z" fill="#fff"/><path d="M594.68 590.727c-7.098-3.856-13.951-8.215-20.844-12.423-.523-.32.011-1.168.523-.884 7.064 3.916 14.239 7.723 21.099 11.992.773.481-.011 1.732-.778 1.315zM580.795 600.862c-11.247-5.185-22.985-9.674-34.597-13.97-.278-.103-.559.042-.725.253-2.742-.47-5.676.025-8.387 1.441-7.062 3.687-9.641 11.562-10.394 19.005-.049.49.163.763.463.887.04.144.14.27.324.348.65.275 1.333.47 2.023.642l-.077.119c-.426.655.53 1.052.941.476l.239-.334c.031.007.062.016.093.022-1.373 1.356-2.72 2.741-4.069 4.118-.618.631-.585 1.617.179 2.094.577.359 1.163.702 1.743 1.056-1.032-.54-2.064-1.065-3.097-1.627-.493-.269-1.184.556-.698.912 2.928 2.148 6.026 4.143 9.223 6.012 1.745 1.857 3.538 3.673 5.516 5.168.892.674 2.077-.522 1.356-1.393-.028-.034-.061-.065-.089-.099 9.233 4.566 19.173 7.898 29.089 9.577 1.337.226 2.14-1.857.689-2.25-12.703-3.441-24.41-7.714-35.985-13.284l-1.348-1.147c2.232-.022 4.489-.351 6.683-.923-.334.579.501.947.844.41.17-.267.35-.529.521-.795 4.817-1.537 9.164-4.438 11.831-8.798 2.352-3.845 3.105-8.547 1.869-12.756a.65.65 0 00-.076-.299c-.498-1.564-1.258-3.059-2.349-4.402-.116-.143-.253-.249-.374-.385 9.072 4.17 18.276 8.211 27.58 11.711 1.073.404 2.213-1.257 1.059-1.789zm-37.012 12.865c3.454-5.192 6.976-10.357 10.145-15.716 1.593 7.584-3.663 12.519-10.145 15.716zm-10.752-3.032c-.802 1.242-1.607 2.483-2.407 3.726-.423.656.532 1.056.941.476 5.767-8.174 11.539-16.371 16.864-24.843 2.123 1.128 3.873 3.033 4.85 5.711.013.036.018.069.03.104-4.109 6.034-7.685 12.445-11.416 18.731a55.836 55.836 0 01-6.601 2.335c5.029-7.158 10.567-14.211 14.897-21.785.47-.821-.638-1.622-1.222-.872-5.61 7.21-10.217 15.397-15.18 23.072-.625.165-1.236.318-1.825.458-.146-.127-.292-.255-.44-.382.476-.519.664-1.272.052-1.71-.647-.463-1.323-.881-1.991-1.311a149.068 149.068 0 003.448-3.71zm5.004-20.469c-2.763 3.59-5.349 7.319-7.95 11.029 1.181-4.256 3.256-8.208 7.198-10.618.248-.152.501-.278.752-.411zm5.453-1.392c-4.526 6.029-8.636 12.389-12.74 18.716a21.844 21.844 0 00-1.854-.12l.002-.005c.168-1.385.399-2.795.697-4.193a.64.64 0 00.534-.256c3.242-4.322 6.608-8.575 9.622-13.061a.554.554 0 00.086-.475 11.479 11.479 0 013.653-.606zm1.377.091c.839.102 1.652.314 2.432.61-4.565 6.326-8.876 12.838-13.12 19.386.054-.52-.119-1.036-.758-1.098-.443-.044-.894-.096-1.342-.146 4.407-6.146 8.844-12.307 12.788-18.752zM609.21 607.11c-15.883-7.369-31.361-15.889-46.775-24.184-.586-.315-.003-1.207.561-.948 15.947 7.312 32.115 14.535 47.604 22.782 1.454.774.007 2.998-1.39 2.35zM680.697 687.705c-34.127-4.566-88.793-16.852-84.905-62.445.058-.683 1.108-.866 1.138-.088 1.67 44.323 49.313 54.848 84.671 59.579 1.941.259.855 3.189-.904 2.954z" fill="#fff"/><path d="M680.391 669.076l-3.374.176c-.891.046-1.294-.497-1.34-1.13-21.132-4.673-45.325-11.979-52.42-34.691-.173-.553.752-1.061 1.044-.496a51.944 51.944 0 002.066 3.598c1.656-4.507 3.154-8.464 1.079-13.307-1.646-3.843-4.991-6.709-8.82-8.237-.542-.216-.079-1.101.428-.967 10.016 2.637 16.857 15.398 9.754 24.406-.222.282-.51.434-.811.506 12.179 17.219 32.526 22.769 52.94 27.051 1.826.382 1.067 3.006-.546 3.091zM596.317 643.882c-5.745-1.682-11.275-4.224-16.757-6.599-.548-.237-.082-1.127.438-.99 5.815 1.536 11.782 2.959 17.375 5.204 1.326.532.195 2.752-1.056 2.385zM608.001 607.85c-4.524 2.558-7.611 6.816-7.669 12.186-.007.622-.916.857-1.127.231-2.112-6.284 1.235-13.483 7.531-15.861 2.217-.839 3.129 2.39 1.265 3.444zM729.637 734.997c-11.87-22.367-22.304-45.683-32.821-68.77-.71.459-1.664.518-2.044-.345-1.621-3.684-7.086-5.763-10.523-3.068-.574.45-1.067-.385-.651-.863 1.98-2.278 4.495-3.366 7.582-2.791a8.987 8.987 0 012.895 1.069c-.411-.898-.82-1.8-1.232-2.698-.274-.598.669-1.259.997-.626 13.077 25.252 26.735 50.528 38.343 76.493.682 1.528-1.688 3.215-2.546 1.599zM728.557 755.515c-1.305 1.02-2.822-.672-2.026-1.973 1.457-2.381 3.081-4.452 3.479-7.317a11.272 11.272 0 00-2.446-8.699c-.399-.484.335-1.271.775-.796 4.545 4.913 6.077 14.206.218 18.785zM715.698 723.643c-39.467 17.225-25.633 66.427-13.894 96.986.228.594-.706 1.254-.976.612-8.39-19.94-17.675-41.654-14.118-63.765 2.652-16.486 12.134-31.776 28.094-37.976 2.851-1.107 3.329 3.08.894 4.143z" fill="#fff"/><path d="M726.846 752.895c-6.006 14.482-7.996 29.086-.371 43.553.298.565-.639 1.198-.954.599-7.291-13.833-9.635-31-1.832-45.217.91-1.659 3.996-.961 3.157 1.065zM767.78 756.455c3.538-5.623 2.567-11.59.89-17.776-.513-1.892-1.094-3.771-1.654-5.653.328-.032.693-.336.571-.671-3.017-8.31-5.964-16.658-8.909-25.01-.643-1.93-1.294-3.86-1.914-5.791-5.309-16.516-10.298-34.177-18.548-49.802l-.052-.133c.402-.533.593-1.236.317-1.923-1.879-4.673-4.524-8.63-7.689-11.894a2.12 2.12 0 00.059-1.118 35.066 35.066 0 00-.509-2.044c.354-10.252-9.661-18.48-18.497-23.269a.826.826 0 00-.417-.093 71.795 71.795 0 00-5.352-2.975 1.422 1.422 0 00-.61-.388l-.585-.204c-.176-.085-.349-.176-.526-.26-16.218-7.718-34.522-15.606-52.051-19.699-.394-.092-.628.157-.698.474-13.594-14.957-37.818-19.511-54.52-29.924-1.817-1.133-3.714 1.962-1.9 3.213 15.553 10.723 35.681 13.597 50.003 26.236 21.583 19.046 12.979 50.005-11.88 60.629-.565.241-.478 1.103.204.945 10.916-2.535 19.312-9.756 23.952-18.951.549.125 1.155-.321 1.144-1.107-.076-5.47 8.428-1.202 10.578-.288 3.666 1.557 7.341 3.095 10.993 4.685.092.04.171.026.26.053-2.222 1.534-4.332 3.288-6.257 5.322-.508.537.175 1.145.716.697 16.297-13.491 36.033-12.139 50.123-.313-.07.171-.109.334-.186.507-.869 1.972 1.577 3.002 3.061 2.153a48.383 48.383 0 013.775 4.279c6.408 15.17 12.364 30.349 17.45 46.115 3.228 10.009 6.393 20.04 9.586 30.06 3.125 9.807 8.948 21.139 5.625 31.438-.646 2.001 1.933 4.886 3.447 2.48zM653.751 590.768c-.299-.391-.615-.766-.928-1.143a74.774 74.774 0 003.606 1.913c-.892-.263-1.785-.515-2.678-.77zm29.076 41.398c.25-.969-.004-2.072-1.058-2.489-3.703-1.464-7.385-2.982-11.075-4.479-2.497-1.013-5.119-2.369-7.853-2.543-.891-.057-1.778.094-2.605.38 1.777-6.773 1.719-14.129-.661-21.272a37.363 37.363 0 00-4.219-8.723c15.811 6.655 32.054 12.307 48.171 18.153.027.01.054.002.081.011 9.598 5.296 17.544 12.066 21.48 21.827-12.274-8.257-29.082-8.624-42.261-.865z" fill="#fff"/><path d="M685.605 631.375c-9.09-2.586-18.37-5.625-27.099-9.237-.791-.327-.109-1.551.618-1.395 9.304 2 18.71 4.775 27.727 7.819 1.584.535.235 3.235-1.246 2.813zM688.417 664.969c-.706.516-1.606.777-2.414 1.106-.844.344-1.681.685-2.55.963-.857.274-1.1-.832-.466-1.268.767-.528 1.563-.993 2.367-1.463.762-.445 1.513-.996 2.365-1.24 1.305-.374 1.629 1.221.698 1.902zM703.485 681.661c-3.272 5.912-11.603 7.529-17.252 4.432-.506-.277-.096-1.094.428-.967 5.9 1.43 10.367-1.084 14.073-5.426 1.393-1.632 3.785.092 2.751 1.961zM694.208 741.972c-14.025-13.991-21.896-36.169-24.667-55.433-.369-2.562 3.863-4.296 4.3-1.442 3.229 21.086 11.56 37.524 21.299 56.121.273.523-.481 1.204-.932.754z" fill="#fff"/><path d="M710.218 723.925c-6.613-11.354-10.818-24.522-15.58-36.745-.698-1.791 2.161-3.725 2.906-1.825 4.855 12.376 10.74 25.096 13.674 38.095.122.539-.688 1.01-1 .475zM671.46 643.75c-3.427 5.157-5.813 11.792-4.42 18.055.12.538-.737.89-.906.304-2.043-7.093-1.625-13.911 3.403-19.731.95-1.1 2.772.094 1.923 1.372zM723.408 771.218c-.644-.378-.01-1.32.625-1.056 24.164 10.048 48.513-9.204 42.374-35.104-.364-1.535 2.062-2.513 2.58-.865 8.491 27.009-20.642 51.664-45.579 37.025zM726.048 759.08c-.627.57-1.573.008-1.132-.807 6.226-11.505 7.095-23.59-.857-34.571-1.072-1.48 1.637-3.763 2.854-2.309 8.694 10.392 9.729 28.059-.865 37.687z" fill="#fff"/><path d="M758.123 817.86c-1.642-5.826-4.132-11.604-5.227-15.177-2.674-8.729-5.934-17.51-7.141-26.571-.061-.459.645-.97.911-.433 5.743 11.615 8.441 25.054 12.115 37.445.496 1.672 1.076 3.394 1.621 5.132-.743-.274-1.508-.427-2.279-.396zM753.125 837.763c1.018 1.193 2.171 2.208 3.433 3.223.623.501 1.559.695 2.284.373.325.173.635.356.968.524 1.587.799.005 3.263-1.505 2.544-13.384-6.376-23.717-20.49-23.431-35.665.01-.52.886-.813 1.009-.207 2.466 12.13 7.788 22.175 17.242 29.208zM743.454 878.509c-15.822-4.402-28.804-16.747-32.982-32.761-.139-.533.792-1.074 1.022-.486 5.899 15.053 17.004 26.433 32.483 31.536 1.068.352.485 1.991-.523 1.711zM784.291 868.647c-4.027 5.291-10.336 8.625-19.88 8.477-.532-.008-.778.974-.18 1.014 9.011.607 15.84-2.841 20.678-8.401a7.457 7.457 0 01-.618-1.09zM793.874 837.225c-1.229-14.443-5.734-28.886-9.984-42.662-4.321-14.007-8.663-29.166-15.79-42.034-.924-1.668-3.622-.191-3.134 1.489 6.093 20.991 15.063 41.137 21.094 62.241a122.937 122.937 0 013.482 16.406 20.665 20.665 0 014.332 4.56z" fill="#fff"/><path d="M744.085 943.131c-7.728-16.507-15.536-32.976-23.236-49.496-5.558-11.925-12.606-23.909-10.004-37.452.337-1.753 3.61-1.826 3.267.171-2.701 15.74 7.105 31.108 13.2 45.091 5.958 13.669 11.851 27.366 17.812 41.034.274.628-.725 1.323-1.039.652zM838.491 921.681c-13.537-40.376-42.7-116.769-98.949-98.137-.955.316-1.313-.989-.536-1.458 22.502-13.57 48.773 2.445 63.596 19.864 18.454 21.687 33.838 50.488 39.049 78.671.351 1.896-2.484 3.076-3.16 1.06z" fill="#fff"/><path d="M808.808 933.189c-5.931-17.806-12.584-35.183-20.68-52.126-7.428-15.546-15.508-39.812-36.3-38.864-.579.026-.492-.702-.069-.879a18.624 18.624 0 013.824-1.146c.319.272.64.543.974.813.909.731 2.497.836 3.099-.414a4.16 4.16 0 00.234-.602c12.154 1.175 20.101 17.088 25.184 26.982 10.726 20.878 19.851 42.781 27.22 65.068.667 2.013-2.748 3.383-3.486 1.168zM837.43 967.971c-20.139 34.928-69.677 21.575-83.951-11.19-.291-.667.673-1.362 1.103-.693 8.838 13.762 20.219 25.511 36.939 28.79 16.825 3.3 33.801-3.96 42.824-18.469 1.249-2.008 4.35-.632 3.085 1.562zM795.535 934.361c-9.492 1.584-13.131-7.48-16.546-14.744-5.805-12.346-10.138-25.053-13.31-38.317-.175-.731.991-1.203 1.232-.413 2.762 9.081 5.957 18.043 9.662 26.783 3.01 7.101 8.694 25.008 19.112 23.722 2.024-.25 1.573 2.682-.15 2.969zM804.442 951.928c-6.817 6.521-17.447 6.007-24.288-.11-.501-.448.298-1.252.81-.832 6.481 5.316 15.663 4.642 21.934-.561 1.162-.964 2.693.404 1.544 1.503zM843.141 960.879c-.314.548-1.205.334-1.024-.345 3.857-14.415 3.803-26.776-2.031-40.66-.669-1.591 1.715-3.347 2.652-1.665 7.132 12.802 7.767 29.834.403 42.67zM757.116 903.595c-2.745-7.006-6.492-13.961-8.499-21.209-.297-1.073 1.507-2.114 2.045-.971 3.217 6.835 4.902 14.603 7.388 21.737.169.487-.728.97-.934.443zM341.272 237.182c8.863-13.189 17.09-26.831 25.566-40.272.302-.479-.342-1.192-.694-.65-8.638 13.313-17.559 26.487-25.809 40.044-.393.645.445 1.61.937.878zM365.655 207.438c.34-.495-.343-1.239-.728-.683-9.257 13.338-18.921 26.427-27.819 40.008-.418.638.419 1.589.937.878 9.567-13.135 18.399-26.816 27.61-40.203zM360.04 223.539c.398-.475-.3-1.227-.746-.699-8.251 9.763-16.506 19.52-24.676 29.35-.387.466.291 1.196.728.683 8.287-9.731 16.487-19.534 24.694-29.334zM352.354 238.487c.4-.455-.282-1.186-.728-.683-4.925 5.549-9.887 11.068-14.765 16.658-.437.501.308 1.297.798.748 4.94-5.536 9.8-11.146 14.695-16.723zM350.581 244.53c.386-.549-.344-1.363-.815-.764a1176.713 1176.713 0 00-8.598 11.062c-.633.824.573 2.108 1.249 1.171 2.743-3.807 5.464-7.629 8.164-11.469zM353.573 249.509c.571-.788-.506-1.973-1.18-1.106l-3.006 3.871c-.664.855.595 2.195 1.301 1.22a9960.16 9960.16 0 012.885-3.985zM339.69 257.079c-5.045-.215-10.192-.755-15.238-.536-.727.031-.747 1.357-.032 1.423 2.059.19 4.141.241 6.226.255-2.992.578-5.978 1.207-8.89 2.075-.705.21-.437 1.561.314 1.439 4.668-.759 9.257-2.115 13.818-3.342.104-.028.157-.111.209-.191 1.237-.014 2.471-.025 3.699-.017.643.004.519-1.079-.106-1.106z" fill="#fff"/><path d="M333.552 259.434c-3.959 1.189-7.94 2.393-11.816 3.829-.935.347-.421 1.984.575 1.656 3.927-1.294 7.791-2.835 11.628-4.374.625-.251.283-1.312-.387-1.111zM331.2 263.164c-2.84 1.32-5.721 2.62-8.412 4.229-.697.417-.354 1.812.493 1.42 2.863-1.327 5.574-2.993 8.281-4.608.511-.305.258-1.329-.362-1.041zM317.151 355.581c-4.29-15.051-4.95-29.381-5.375-44.876-.02-.725-.947-.719-1.102-.062-3.089 13.114-1.852 27.732 1.373 40.962-1.322.151-2.103 2.21-.899 3.429l2.967 3.004c1.696 1.717 3.529-.729 3.036-2.457z" fill="#fff"/><path d="M316.982 405.922c-23.577-6.996-27.898-41.094-31.069-61.883-2.852-18.699-2.306-36.958-2.097-55.666 1.779.121 3.536-1.621 2.713-4.05-11.266-33.249-10.83-66.805 8.662-97.098.653-1.015-.687-2.53-1.483-1.39-19.471 27.871-26.924 67.911-12.72 99.768-4.116 24.132-1.132 50.674 3.894 74.309 4.014 18.875 9.379 45.549 31.45 50.55 2.719.615 3.096-3.814.65-4.54z" fill="#fff"/><path d="M343.015 345.617c-.04-.046-.086-.079-.126-.124.06-.229.106-.476.117-.761.241-6.449-.704-13.047-1.392-19.458-.568-5.297-.931-10.772-2.187-15.983a12.728 12.728 0 001.497-.929c.788-.572.394-1.861-.451-2.112-.716-.213-1.466-.339-2.229-.426a1.124 1.124 0 00-1.301-.104c-3.993-.152-8.371.931-12.099 1.441-3.726.51-7.677.772-11.431 1.561-12.295-4.285-21.152-8.967-27.384-21.099-.587-1.143-1.764.023-1.561.942 2.421 10.961 11.741 21.974 23.088 24.811.323 1.019 1.09 1.919 2.173 2.147-1.598 5.728-1.676 12.024-1.57 17.82.14 7.614.499 16.556 3.979 23.455 1.072 2.125 3.099 1.316 4.058-.193.255-.001.522-.101.762-.364 3.538-3.871 6.768-7.326 12.258-8.125 4.488-.652 7.686 1.434 11.769 2.627 3.06.892 3.428-3.509 2.03-5.126zm-26.548 5.228c-.611-5.998-2.153-12.019-2.412-18.071-.248-5.784.365-11.639.237-17.434 4.366-.545 8.845-1.895 13-2.798 2.726-.592 5.8-1.01 8.638-1.859-.261 4.652.117 9.383.339 14 .273 5.697.346 11.623 1.182 17.304-7.548-2.448-17.428 1.759-20.984 8.858zM406.628 467.359c1.739-4.101-4.176-7.781-6.096-3.254-11.25 26.532-45.577 20.965-61.513 2.739-17.449-19.956-19.219-48.627-21.356-73.804-.118-1.386-2.27-1.663-2.314-.131-.901 31.39.359 67.134 27.907 87.889 20.473 15.426 52.661 11.822 63.372-13.439z" fill="#fff"/><path d="M406.397 512.417c-2.811-15.579 5.262-31.556 22.789-32.843.833-.061.873-1.583.037-1.647-2.836-.218-5.574-.213-8.194.097a3.109 3.109 0 00-1.038-2.248c-4.147-3.744-9.026-7.131-13.728-10.144-1.835-1.176-2.614 1.806-1.621 2.964 3.201 3.733 6.654 7.509 10.341 10.828-3.763 1.362-7.181 3.662-10.14 7.291-4.641 5.691-6.908 13.322-6.22 20.625-12.065-2.833-19.095-9.857-25.645-20.425-.789-1.274-2.246-.285-2.219.924.314 14.352 14.441 26.405 28.348 27.329a3.536 3.536 0 001.553-.232c1.915 2.544 6.406 1.188 5.737-2.519z" fill="#fff"/><path d="M485.044 581.868c-14.58-8.325-29.518-14.32-43.017-24.707-12.284-9.453-23.43-20.523-33.519-32.265-1.203-1.4-2.713.825-1.956 2.078 5.453 9.028 11.759 17.227 18.935 24.666-19.917-2.774-38.812-9.383-55.764-20.741-10.422-6.983-20.486-15.74-27.46-26.243-7.746-11.666-9.153-23.015-8.001-36.619.086-1.016-1.292-2.322-2.034-1.081-13.615 22.766 7.434 49.813 24.36 63.572 22.071 17.941 49.584 28.434 77.987 29.708a141.784 141.784 0 006.078 5c12.356 9.55 27.304 19.603 42.697 23.017 3.692.821 4.464-4.803 1.694-6.385zM613.198 566.455c-10.202-7.117-21.371-14.787-32.747-19.856-.359-.16-.678-.121-.94.021-.047-.176-.133-.341-.304-.443-1.131-.676-2.444-.248-3.333.608a184.5 184.5 0 00-1.943-.503c-1.086-.274-1.684.727-1.789 1.63-.44-.081-.884-.124-1.349-.044-1.271.218-1.87 2.14-.771 2.975 1.091.83 2.189.99 3.514 1.288 1.194.269 1.995-.95 1.909-2.003l-.011-.123c.237.025.474.058.712.079.98.086 1.724-.687 1.61-1.69-.066-.588.655-.778 1.125-.869-.081.427.025.896.396 1.22 9.568 8.339 21.338 15.46 32.26 21.879 2.525 1.483 3.695-2.75 1.661-4.169zM568.144 550.263c.146-.629-.67-1.412-1.232-.884-5.238 4.921-9.487 12.831-12.338 19.374-.878 2.016 1.83 4.531 3.334 2.399 4.208-5.966 8.584-13.758 10.236-20.889z" fill="#fff"/><path d="M603.364 607.516c.104-.161.207-.323.315-.482.156-.229.305-.458.452-.688 2.136-.035 3.025-3.675.808-4.734-15.558-7.434-30.622-15.558-45.645-23.977l.118-.081c.926-.64.714-2.072.047-2.777l-1.161-2.162c-.097-.485-.738-.965-1.105-.396l-.888 1.38c-.328.51-.349 1.098-.117 1.635l-1.396.616c-1.628.718-1.39 2.981-.071 3.847 14.734 9.673 30.402 18.057 46.391 25.476-.313.285-.626.57-.931.861-17.27-6.842-34.779-14.909-52.734-19.7a.797.797 0 00-.28-.134c-.337-.084-.664-.143-.994-.208-.692-.178-1.379-.388-2.072-.555a.502.502 0 00-.544.175c-.771-.079-1.55-.145-2.366-.216-.804-.07-1.394.381-1.707.988-3.369.7-6.422 2.466-8.785 5.103-3.611 4.03-4.087 6.878-2.443 11.21-.355.36-.709.721-1.066 1.08-.901.91-1.153 2.565-.059 3.492l-.34 1.002c-1.784 1.109-.228 4.828 1.835 3.787 2.531-1.276 3.402-3.938 2.41-6.207.249-.25.496-.501.745-.75.642-.643 1.044-1.676.652-2.577-1.568-3.604-1.24-5.625 1.775-8.49 2.596-2.467 5.442-3.514 8.976-3.845.948-.089 1.423-.717 1.547-1.457a26.49 26.49 0 001.882-.372c17.126 9.428 36.435 16.012 54.395 23.517 2.854 1.192 4.154-2.649 2.356-4.361z" fill="#fff"/><path d="M593.646 643.306a1.59 1.59 0 00.555-.227c.047.15.105.294.154.442.836.28 1.628.638 2.327 1.128 2.127 1.492 2.753 3.953 3.675 6.239a2.451 2.451 0 001.027-2.956c-1.859-5.268-3.788-9.959-4.2-15.635-.426-5.873.543-11.699 2.247-17.308.187-.616-.56-1.482-1.055-.759-4.524 6.611-6.496 15.892-5.208 24.351-21.52-6.45-41.57-14.871-61.921-24.127.446-.336.914-.641 1.35-.991.95-.729.193-2.573-1.03-2.126a54.114 54.114 0 00-4.469 1.746c-1.435.598-1.252 2.688-.063 3.416 19.393 11.879 41.779 20.452 63.789 26.27.954.122 1.907.288 2.822.537zM617.311 612.522c-.811-.012-.745 1.217-.213 1.533 4.24 2.516 8.159 5.109 9.64 10.124 1.24 4.2-.256 7.499-1.138 11.506-.436 1.981 1.947 3.216 3.264 1.734 7.546-8.494-.756-24.735-11.553-24.897zM660.017 619.978c-.007-.697-.996-.936-1.251-.257-4.611 12.273-12.168 22.135-25.541 25.349-2.915.701-2.397 5.933.503 5.228 13.906-3.383 26.443-15.206 26.289-30.32z" fill="#fff"/><path d="M674.81 680.679c-29.155 1.102-53.832-12.52-73.752-32.94-.494-.506-1.04.311-.747.794 15.499 25.576 45.86 38.132 75.014 37.499 3.07-.067 2.587-5.471-.515-5.353zM692.885 662.42c1.449-1.738-.804-5.058-2.815-3.394-6.92 5.723-15.164 5.665-23.583 3.171.14-14.848 8.286-25.21 21.747-30.913.534-.226.354-1.161-.245-1.122-.738.047-1.456.151-2.173.255.006-.316-.02-.64-.12-.969l-.281-.929c-.386-1.277-1.956-1.798-2.96-1.189a887.616 887.616 0 00-11.712-3.577c-3.725-1.113-7.796-3.062-11.713-2.577-.598.074-.725.889-.328 1.265 2.941 2.783 7.27 3.814 10.988 5.282a983.6 983.6 0 0010.581 4.104c-11.506 4.287-19.014 16.073-18.711 28.668-10.2-4.01-20.33-10.642-28.368-14.038-.728-.308-1.154.688-.644 1.177 9.535 9.131 22.574 15.275 34.951 19.522 9.541 3.273 18.531 3.487 25.386-4.736zM723.14 716.779c-5.662-11.861-11.433-23.751-18.16-35.052-.713-1.198-2.262-.054-1.831 1.105 3.93 10.58 8.622 20.887 13.454 31.094-1.84.172-3.677.813-5.255 1.794-2.399-5.007-4.792-9.986-6.807-15.176-2.25-5.796-3.739-12.006-6.372-17.623-.248-.528-1.149-.636-1.173.113-.381 12.079 5.017 25.628 10.902 36.125-.048.082-.111.157-.156.241-.92 1.692 1.252 4.017 2.887 2.706 1.697-1.359 3.021-2.866 5.007-3.858.837-.418 1.694-.706 2.561-.952.208.436.412.875.62 1.31 1.456 3.045 5.722 1.103 4.323-1.827z" fill="#fff"/><path d="M780.972 868.992c-13.806 13.123-33.451 10.718-47.605-.605-13.499-10.799-20.898-27.078-27.89-42.428-13.58-29.815-28.371-68.679-1.028-95.849.455-.452-.008-1.411-.623-.969-3.36 2.419-6.217 5.04-8.627 7.828-11.274-16.58-17.951-34.204-23.341-53.4-.374-1.333-2.132-.75-2.033.516 1.607 20.433 10.182 39.989 21.815 56.656.119.171.245.315.374.444-18.126 26.901-.965 66.455 11.647 93.406 7.818 16.707 17.356 33.702 33.877 43.162 14.778 8.461 33.932 8.361 46.349-4.223 2.126-2.154-.407-6.922-2.915-4.538z" fill="#fff"/><path d="M796.581 835.034c-13.071-13.963-36.893-24.565-56.066-17.833-1.99-3.991-3.811-8.051-5.641-11.943-2.651-5.639-17.032-30.438-11.121-35.279.427-.349.229-1.343-.423-1.235-11.956 1.984 1.725 25.808 4.049 31.308 6.542 15.483 13.817 37.531 29.858 45.29 2.951 1.427 4.225-3.138 1.86-4.669-7.695-4.981-12.887-12.583-17.172-20.715 8.418.149 16.595-.015 24.974 2.189 10.794 2.839 19.55 8.077 27.802 15.49 1.648 1.48 3.174-1.221 1.88-2.603z" fill="#fff"/><path d="M760.79 814.25c-3.452-12.79-9.859-24.801-14.405-37.282.78-.473.726-1.815-.09-2.238-3.51-1.82-8.177-1.699-12.026-2.636-4.391-1.068-8.466-2.826-12.742-4.218-2.559-.833-3.265 3.552-1.224 4.615 4.069 2.118 8.832 3.304 13.316 4.149 2.978.562 6.753 1.419 10.031 1.038.811 13.362 9.041 25.77 12.735 38.432.983 3.371 5.25 1.27 4.405-1.86zM808.317 923.654c-.033-1.356-.997-2.111-2.024-2.221-3.855-16.921-11.292-34.979-21.044-49.186-.802-1.169-2.342-.086-1.889 1.139 6.335 17.162 12.909 34.348 19.32 51.486l.008.014c-4.249 5.236-8.721 5.62-13.421 1.032a38.82 38.82 0 01-6.149-6.602c-3.016-4.011-5.229-8.526-7.118-13.156-3.351-8.214-5.166-16.924-8.346-25.192-.355-.923-1.49-.555-1.455.369.656 17.24 6.529 38.89 21.051 49.719 8.01 5.973 21.36 4.776 21.067-7.402z" fill="#fff"/><path d="M844.947 919.041c-4.274-16.218-12.626-31.522-20.58-46.191-9.492-17.506-20.256-34.241-33.595-49.078-2.219-2.468-4.784 1.79-2.869 3.971 20.655 23.527 37.795 52.518 49.068 81.744 10.704 27.751 7.522 70.518-28.781 76.883-32.465 5.692-54.3-31.825-67.281-55.747-7.214-13.295-13.214-27.261-17.964-41.62-4.428-13.383-6.471-27.544-11.085-40.807-.491-1.41-2.074-.731-2.097.532-.322 17.465 6.185 36.049 12.253 52.189a254.253 254.253 0 0022.241 45.032c15.082 24.182 40.025 55.804 72.588 43.092 27.919-10.9 35.059-43.602 28.102-70zM296.434 288.06c-7.257-13.348-10.016-27.712-5.768-42.536.155-.543-.605-1.038-.792-.423-4.454 14.615-3.327 31.101 5.184 44.077.705 1.076 1.907-.141 1.376-1.118zM302.242 290.243c-4.725-8.328-7.365-17.193-7.523-26.791-.005-.331-.454-.28-.453.044.024 9.622 2.418 18.949 7.422 27.197.266.437.778-.056.554-.45zM310.848 292.651c-5.522-7.286-8.608-16.074-8.208-25.267.015-.348-.486-.484-.505-.106-.48 9.561 2.069 18.358 8.177 25.809.306.374.808-.076.536-.436zM318.009 290.855c-4.409-4.488-7.36-9.738-8.219-16.028-.052-.378-.573-.333-.531.051.703 6.404 3.383 12.356 8.241 16.68.445.396.871-.334.509-.703zM319.562 287.994c-.819-1.371-1.689-2.709-2.551-4.053-.319-.497-.926.072-.643.523.848 1.352 1.687 2.707 2.578 4.031.317.473.876-.066.616-.501zM337.552 305.62c-.001-8.919 1.171-19.879-7.118-24.352a1.015 1.015 0 00-.104-.565c-.001-.016-.005-.033-.007-.049.24-.292.193-.841-.258-.919-1.506-.26-3.014-.508-4.521-.756-.081-.013-.13.03-.191.053-.099-.017-.199-.027-.298-.044-.552-.094-.822.434-.749.891-.659.285-.585 1.666.218 1.75l.01.001a.287.287 0 00.09.17c.5.422.611.996.453 1.591-.074.279.196.48.427.464-.347.53-.704 1.053-1.029 1.596-.171.286.194.715.416.39.652-.954 1.248-1.944 1.858-2.925.171-.275-.194-.686-.399-.374-.176.268-.344.54-.521.807.115-.643-.038-1.198-.469-1.636l1.19.121c.436.125.824.284 1.219.438-1.052 1.472-2.127 2.931-3.099 4.458-.223.35.229.87.512.48 1.089-1.5 2.07-3.074 3.077-4.63.025-.039.018-.082.024-.124.48.209.92.446 1.34.697l-3.778 4.722c-.099-.019-.199-.001-.271.128-.125.224-.248.448-.37.673v.001l-.051.093c-.211.388.355.862.648.466l4.281-5.777c6.369 4.268 5.486 13.532 5.352 21.014a1.08 1.08 0 00-.1.58l.083.772c.17 1.566 2.135 1.311 2.135-.205z" fill="#fff"/><path d="M331.079 284.648c.192-.297-.173-.721-.434-.406-1.783 2.149-3.445 4.429-5.029 6.728-.254.369.232.915.546.512 1.722-2.207 3.397-4.483 4.917-6.834zM332.686 285.53c.182-.277-.178-.689-.408-.382-2.303 3.075-4.711 6.174-6.735 9.44-.232.374.225.919.546.512 2.39-3.02 4.485-6.351 6.597-9.57zM333.419 287.732c.191-.268-.17-.667-.399-.374-2.568 3.293-5.305 6.531-7.615 10.013-.263.396.232.964.581.545 2.684-3.215 5.007-6.774 7.433-10.184zM335.071 289.388c.208-.299-.178-.732-.442-.415a191.861 191.861 0 00-8.327 10.769c-.276.383.237.951.573.537a193.71 193.71 0 008.196-10.891zM336.068 292.581c.183-.225-.128-.686-.367-.442a181.785 181.785 0 00-9.341 10.226c-.291.346.208 1.061.566.682a182.782 182.782 0 009.142-10.466zM335.672 296.233c.209-.226-.124-.699-.383-.461-3.357 3.102-6.596 6.368-9.786 9.642-.322.33.068 1.057.444.691 3.303-3.217 6.594-6.488 9.725-9.872zM336.574 301.524c.271-.299.045-.696-.263-.791.366-.372.73-.748 1.098-1.118.43-.433-.095-1.388-.583-.907-2.925 2.88-5.942 5.698-8.741 8.701-.374.402.221 1.245.681.821 1.007-.93 1.974-1.907 2.948-2.875a241.306 241.306 0 00-3.208 3.569c-.316.361.219 1.115.597.719 2.54-2.661 4.998-5.397 7.471-8.119zM284.973 296.704l2.45-6.385c.119-.31-.324-.588-.457-.244l-2.46 6.38c-.122.317.332.601.467.249zM283.577 307.055c1.669-4.246 3.207-8.542 4.838-12.803.124-.324-.338-.615-.477-.255-1.642 4.249-3.377 8.463-4.981 12.727-.158.421.436.797.62.331zM291.339 297.273c.168-.305-.231-.756-.434-.406-2.181 3.761-4.431 7.492-6.496 11.319-.195.361.373.844.612.44 2.205-3.725 4.23-7.561 6.318-11.353zM291.356 303.086c.128-.315-.319-.596-.467-.249-1.668 3.907-3.435 7.788-4.981 11.745-.161.413.409.776.609.325 1.724-3.888 3.237-7.881 4.839-11.821zM295.763 303.573c.139-.32-.321-.607-.477-.255-2.315 5.219-4.799 10.375-7.01 15.639-.207.493.486.927.731.39 2.375-5.2 4.485-10.528 6.756-15.774zM298.25 307.025c.135-.345-.335-.643-.508-.271-2.097 4.505-4.183 9.063-6.008 13.685-.199.503.49.94.742.396 2.09-4.517 3.954-9.179 5.774-13.81zM295.41 323.774c1.759-4.529 3.317-9.177 4.808-13.801.113-.351-.363-.672-.518-.276-1.773 4.511-3.506 9.085-5.011 13.692-.16.49.508.936.721.385zM299.303 321.791c1.576-4.052 2.866-8.227 4.327-12.323.114-.319-.338-.605-.467-.25-1.482 4.078-3.144 8.107-4.51 12.225-.147.443.457.844.65.348zM304.278 321.528c1.203-3.66 2.053-7.423 3.081-11.133.091-.327-.369-.626-.477-.255-1.086 3.716-2.348 7.382-3.26 11.147-.095.396.515.67.656.241zM308.663 319.238c.613-2.627 1.211-5.259 1.865-7.876.088-.354-.424-.478-.516-.109-.646 2.586-1.349 5.158-2.036 7.733-.141.53.549.84.687.252z" fill="#fff"/><path d="M299.188 364.721c-5.674-18.018-5.339-37.681.146-55.703.097-.319-.347-.61-.467-.249-6.133 18.485-5.954 37.643-.34 56.231.151.501.809.191.661-.279zM299.601 369.058c-.216-.216-.457.174-.264.366.215.216.456-.174.264-.366zM299.615 371.002c-.239-.239-.505.192-.292.405.238.239.504-.192.292-.405zM313.906 362.064c.173-.277-.203-.687-.399-.374l-4.91 7.855c-.173.277.203.687.399.374l4.91-7.855zM314.418 355.701c.19-.302-.192-.75-.442-.415-2.24 3.003-4.437 6.104-6.452 9.263-.253.397.257.986.581.545 2.221-3.029 4.318-6.21 6.313-9.393zM313.132 365.036c.169-.342-.328-.645-.518-.277-1.682 3.251-3.358 6.502-4.98 9.783-.189.382.367.721.579.309 1.678-3.254 3.3-6.533 4.919-9.815zM310.925 373.814c.13-.234-.182-.574-.329-.309l-2.455 4.419c-.13.234.182.574.329.309l2.455-4.419zM317.837 365.996c.17-.29-.213-.721-.416-.39-3.991 6.5-8.031 12.973-11.849 19.577-.22.38.275.947.546.512 4.038-6.486 7.855-13.108 11.719-19.699zM317.162 371.975c.157-.295-.303-.688-.499-.359-3.688 6.182-7.416 12.402-10.732 18.792-.211.407.412.945.687.495 3.761-6.149 7.155-12.567 10.544-18.928zM315.393 380.239c.16-.286-.214-.71-.408-.382-3.166 5.355-6.424 10.667-9.414 16.122-.218.399.293.999.573.537 3.23-5.338 6.197-10.837 9.249-16.277zM314.959 385.68c.173-.313-.226-.785-.451-.423-2.895 4.655-5.786 9.354-8.445 14.148-.244.44.318 1.102.633.594 2.9-4.674 5.6-9.506 8.263-14.319zM314.931 392.446c.141-.268-.282-.626-.452-.325-2.027 3.595-4.052 7.189-6.008 10.823-.192.357.381.835.603.434 1.999-3.62 3.928-7.275 5.857-10.932zM330.113 366.738c.028-.012.052.004.08-.017 4.15-3.035 8.194-6.214 12.241-9.385.256-.201-.014-.686-.305-.474-3.905 2.848-7.81 5.701-11.631 8.662.345-1.018.754-1.993 1.29-2.872.051.003.097.027.153-.004 3.988-2.244 7.928-4.593 11.77-7.08.246-.16.029-.685-.258-.531-.191.102-.377.214-.567.316.089-.189-.003-.469-.261-.465-6.798.085-12.195 5.36-13.557 11.821a.506.506 0 00.989.208c.014-.063.041-.117.056-.179zm12.408-11.182a218.126 218.126 0 00-9.629 5.564c2.344-2.893 5.759-4.808 9.629-5.564zM341.85 358.687c.229-.236-.047-.757-.318-.495-3.821 3.7-7.621 7.412-11.345 11.21-.309.315.067 1.01.424.66 3.807-3.734 7.528-7.545 11.239-11.375zM339.402 363.116c.238-.246-.048-.789-.331-.516-3.49 3.374-6.999 6.731-10.357 10.238-.302.315.059 1.01.424.66 3.516-3.365 6.88-6.884 10.264-10.382zM339.445 365.019c.225-.282-.173-.711-.434-.406-3.173 3.704-6.388 7.386-9.411 11.214-.309.391.237.98.598.561 3.194-3.695 6.205-7.55 9.247-11.369zM337.566 371.958c.209-.266-.168-.675-.408-.382a411.28 411.28 0 00-3.952 4.887c-.232.293.188.748.451.423a387.428 387.428 0 003.909-4.928zM351.078 360.809c.175-.284-.207-.703-.408-.382-4.041 6.465-8.233 12.857-12.116 19.418-.203.342.241.853.494.463 4.16-6.398 8.028-13 12.03-19.499zM352.475 366.172c.182-.281-.2-.698-.408-.382-3.762 5.726-7.543 11.44-11.275 17.184-.213.328.234.818.477.447 3.761-5.733 7.474-11.497 11.206-17.249zM351.789 373.412c.192-.284-.196-.709-.416-.39a2923.062 2923.062 0 00-12.791 18.633c-.213.313.217.783.46.431a3041.073 3041.073 0 0012.747-18.674zM352.127 377.728c.174-.281-.194-.699-.408-.382-4.35 6.46-8.736 12.948-12.799 19.592-.241.394.268.982.572.537 4.401-6.443 8.522-13.118 12.635-19.747zM352.581 383.099c.18-.278-.178-.69-.408-.382-3.082 4.132-6.169 8.303-9.016 12.602-.328.496.327 1.235.729.683 3.047-4.186 5.887-8.554 8.695-12.903zM344.531 402.497l4.332-7.446c.242-.417-.304-1.037-.598-.561l-4.506 7.283c-.336.545.418 1.333.772.724zM370.763 383.767c.186-.3-.215-.746-.434-.406-2.665 4.152-5.421 8.261-7.969 12.486-.227.377.263.941.546.512 2.725-4.125 5.251-8.391 7.857-12.592zM372.357 388.99c.208-.267-.165-.671-.408-.382-2.568 3.061-5.298 6.047-7.672 9.261-.301.407.235.989.607.569 2.654-2.997 5.009-6.294 7.473-9.448zM372.747 411.673c.2-.307-.189-.757-.451-.423a128.531 128.531 0 00-2.32 3.032c-.313.424.3 1.074.633.594a131.066 131.066 0 002.138-3.203zM370.613 471.045c-22.095-10.131-36.534-30.975-38.74-55.101-.041-.45-.637-.385-.619.06.946 24.07 16.842 46.726 38.896 56.203.729.313 1.122-.86.463-1.162zM403.762 454.184c-12.825-6.91-28.642-8.354-42.187-2.565-.367.157-.169.794.23.663 13.988-4.593 28.425-4.106 41.598 2.802.547.286.851-.635.359-.9zM461.043 487.968c-10.175-12.375-24.111-21.414-39-27.024-.341-.128-.524.415-.213.535 12.099 4.663 23.183 11.738 32.304 20.979 9.154 9.275 18.536 23.608 9.504 36.141-.749 1.039.674 2.604 1.553 1.456 7.785-10.174 3.204-23.146-4.148-32.087z" fill="#fff"/><path d="M452.823 500.296a32.433 32.433 0 00-4.421-1.126c-.651-.121-.767.96-.156 1.091 1.51.324 2.95.546 4.488.655.38.027.425-.508.089-.62zM440.005 488.248c-2.673-1.605-5.914-1.965-8.742-.524-.487.248-.214 1.174.32.923 2.607-1.224 5.672-1.33 8.204.147.324.189.507-.373.218-.546zM441.614 489.175c-3.564.573-7.142 1.049-10.705 1.631-.508.083-.42.978.086.892 3.566-.607 7.112-1.317 10.676-1.933.334-.058.28-.645-.057-.59zM445.607 492.1c-4.743.124-9.537.379-14.265.787-.632.055-.523 1.12.105 1.093 4.738-.199 9.523-.556 14.241-1.038.487-.05.402-.855-.081-.842zM447.83 495.197c-5.007.225-10.19.107-15.151.828-.668.097-.539 1.126.11 1.143 5.011.131 10.14-.59 15.139-.954.587-.042.488-1.043-.098-1.017zM451.407 497.117c-5.194.026-10.757.65-15.992 1.54-.024.001-.042-.008-.067-.003l-2.516.448c-.768.137-.661 1.405.131 1.36 6.047-.344 12.633-1.161 18.516-2.603.409-.101.367-.744-.072-.742zM453.207 500.972c-4.989-.002-10.003.241-14.988.592.003-.466-.367-.985-.816-.715-.542.325-1.071.646-1.608.979-.586.362-.175 1.385.464 1.353 5.675-.279 11.386-.72 17.022-1.442.445-.058.364-.766-.074-.767zM455.947 504.538c-4.422-.313-9.046-.446-13.466-.091-.732.059-.567 1.197.119 1.231 4.384.216 8.968-.045 13.333-.491.323-.034.347-.626.014-.649zM457.647 506.96c-4.249.303-8.556.489-12.778 1.06-.679.092-.734 1.268-.031 1.364l2.066.281c.354.048.563-.209.602-.498 3.422-.293 6.844-.726 10.245-1.126.62-.074.519-1.126-.104-1.081zM456.293 509.897c-2.24.375-4.473.751-6.691 1.242-.668.148-.576 1.33.116 1.206 2.242-.401 4.454-.914 6.673-1.431.558-.129.492-1.116-.098-1.017zM363.283 485.633a684.492 684.492 0 01-15.901-1.907c-.679-.089-.804 1.013-.162 1.134l3.48.656c.262.049.409-.123.468-.331 4.015.307 8.033.613 12.037.992.327.033.389-.51.078-.544zM369.505 491.044a1403.663 1403.663 0 00-17.861-3.132c-.059-.173-.159-.32-.349-.336-1.041-.087-2.082-.174-3.122-.273-.756-.072-.908 1.152-.181 1.269a1455.082 1455.082 0 0021.396 3.29c.49.071.58-.733.117-.818zM371.302 493.666c-6.494-.677-13.159-1.153-19.689-1.241-.552-.007-.559 1.026-.024 1.073 6.501.575 13.174.781 19.7.766.309 0 .311-.567.013-.598zM374.887 497.957c-6.537-.696-13.136-1.668-19.711-1.84-.52-.014-.509.923-.022.998 6.462 1.008 13.09 1.233 19.608 1.722.524.04.63-.826.125-.88zM381.1 503.457c-6.141-1.086-12.455-2.455-18.679-2.883-.567-.039-.683.835-.137.955 6.095 1.331 12.54 1.785 18.739 2.462.319.034.381-.48.077-.534zM383.331 506.551c-4.401-.621-9.011-1.033-13.455-1.121-.534-.01-.537.977-.023 1.036 4.412.502 9.027.704 13.465.672.304-.003.301-.547.013-.587zM387.34 510.554c-3.872-.412-7.772-.845-11.663-1.002-.418-.017-.42.765-.018.811 3.866.44 7.783.604 11.668.789.308.015.311-.567.013-.598zM371.05 518.586c.064-.132.075-.302-.046-.423-.188-.188-.373-.046-.437.151-4.658-.581-9.316-1.249-13.986-1.712-.556-.055-.664.863-.133.93 4.749.596 9.532.982 14.295 1.461.241.025.343-.212.307-.407zM378.456 522.827c-6.36-1.357-12.734-2.959-19.16-3.966-.621-.097-.713.88-.147 1.029 6.293 1.653 12.775 2.745 19.148 4.053.662.136.784-.982.159-1.116zM385.564 526.623c-5.332-.513-10.782-.784-16.136-.878-.449-.008-.455.837-.02.874 5.337.445 10.784.727 16.139.753.385.001.39-.713.017-.749zM395.716 531.31a621.266 621.266 0 00-19.157-.477c-.589-.006-.481.997.098 1.018 6.377.232 12.77.38 19.151.414.554.003.448-.933-.092-.955zM404.262 535.633c-7.722-.487-15.514-.897-23.25-.996-.461-.006-.469.872-.02.898 7.722.458 15.522.615 23.258.684.3.004.305-.567.012-.586zM415.298 539.26c-8.295-.292-16.639-.865-24.939-.809-.57.004-.58 1.068-.025 1.111 8.327.641 16.738.661 25.085.955.717.024.6-1.232-.121-1.257zM421.479 540.459c-8.008.941-16.048 1.741-24.028 2.899-.715.104-.605 1.323.121 1.256 8.029-.74 16.033-1.841 24.038-2.799.778-.092.648-1.447-.131-1.356zM424.686 546.185c-6.691.397-13.412 1.21-20.065 2.02-.583.071-.488 1.077.098 1.018 6.67-.671 13.408-1.353 20.025-2.435.343-.056.293-.623-.058-.603z" fill="#fff"/><path d="M419.564 539.885c-12.747-3.91-24.933-8.879-36.456-15.629-11.58-6.784-21.624-15.137-31.681-23.935-.349-.306-.648.25-.39.539 17.543 19.707 43.027 34.071 68.195 41.344 1.35.39 1.588-1.933.332-2.319zM356.265 326.43c-3.865-15.23-7.881-30.422-11.863-45.621-.121-.461-.708-.174-.599.253 3.857 15.243 7.681 30.496 11.656 45.709.162.619.952.234.806-.341zM350.589 375.596c2.069-13.736 3.934-27.502 5.824-41.264.049-.359-.457-.489-.516-.109-2.132 13.717-4.289 27.431-6.241 41.176-.093.649.829.886.933.197zM356.043 259.473c14.861-27.658 23.804-59.141 27.538-90.223.044-.366-.47-.501-.527-.111-4.627 31.559-14.627 60.931-28.423 89.58-.453.941.881 1.743 1.412.754zM461.558 541.14c-8.48-4.708-16.743-9.769-24.76-15.229-7.646-5.208-27.874-15.938-20.512-27.547.179-.282-.203-.701-.408-.382-6.005 9.348 4.069 17.269 10.825 22.337 4.135 3.102 8.388 6.03 12.697 8.874-3.81 1.869-7.703 3.584-11.435 5.606-.396.214-.185.976.267.769 3.994-1.834 7.827-4.009 11.747-5.992.992.651 1.996 1.283 2.995 1.922-3.038 1.588-6.137 3.102-9.104 4.815-.345.199-.159.885.238.686 3.19-1.596 6.277-3.434 9.401-5.157a281.2 281.2 0 0017.62 10.368c.649.348 1.008-.748.429-1.07z" fill="#fff"/><path d="M446.416 535.648l-4.421 1.467c-.316.105-.142.668.193.556l4.417-1.479c.309-.103.139-.652-.189-.544zM454.559 537.951c-5.943 2.309-11.875 4.706-17.701 7.297-.394.175-.18.886.25.722 5.954-2.283 11.847-4.779 17.684-7.344.371-.163.168-.831-.233-.675zM459.649 541.475c-5.971 2.195-11.889 4.692-17.716 7.246-.499.219-.224 1.125.316.911 5.921-2.341 11.865-4.787 17.633-7.483.365-.17.172-.823-.233-.674zM467.738 545.133c-7.641 3.104-15.283 6.23-22.857 9.496-.423.182-.187.953.267.769 7.644-3.106 15.236-6.359 22.812-9.627.351-.151.155-.791-.222-.638zM473.767 546.92c-7.924 3.229-15.835 6.616-23.613 10.182-.468.215-.21 1.075.3.864 7.911-3.275 15.78-6.772 23.543-10.383.358-.167.162-.823-.23-.663zM479.808 548.63a959.846 959.846 0 00-30.337 15.151c-.521.272-.227 1.271.345.994a964.54 964.54 0 0030.271-15.34c.419-.222.186-1.027-.279-.805zM476.681 554.188c-7.396 3.844-14.844 7.623-22.121 11.689-.412.23-.18 1.039.279.805 7.435-3.8 14.723-7.903 22.039-11.926.293-.161.124-.735-.197-.568zM477.367 559.371c-5.698 3.593-11.451 7.13-17.003 10.945-.431.296.004 1.046.484.753 5.746-3.517 11.321-7.329 16.924-11.069.36-.241-.005-.881-.405-.629zM476.729 563.064c-2.81 1.583-5.531 3.338-8.255 5.063-.477.302.005 1.161.53.825 2.694-1.723 5.411-3.431 8.014-5.29.266-.19.033-.78-.289-.598zM507.645 520.437c-.455.309-.914.618-1.371.927-.781-.532-1.582-1.035-2.372-1.554.845-.628 1.696-1.25 2.539-1.878.308-.229-.01-.792-.358-.557-.963.653-1.925 1.316-2.889 1.971-.837-.545-1.659-1.11-2.505-1.642.489-.346.978-.695 1.468-1.039.326-.229-.007-.815-.371-.577-.603.394-1.21.786-1.816 1.178a247.947 247.947 0 00-4.938-3.007c.327-.303.658-.607.983-.91.253-.235-.02-.761-.331-.516-.433.342-.869.69-1.304 1.035a366.332 366.332 0 00-4.322-2.5c-.308-.175-.441.33-.199.501a384.26 384.26 0 003.746 2.614c-2.844 2.264-5.684 4.593-8.304 7.075-.359.341.023 1.094.477.742 2.942-2.275 5.758-4.811 8.509-7.352a253.079 253.079 0 004.567 3.042c-3.767 2.436-7.548 4.873-11.164 7.514-.434.317.007 1.081.497.773 3.892-2.445 7.649-5.131 11.404-7.796.84.545 1.702 1.051 2.549 1.583-3.922 2.669-7.836 5.363-11.627 8.199-.438.328.014 1.128.51.794 4.034-2.719 7.971-5.61 11.887-8.515.795.494 1.588.993 2.386 1.482-4.464 3.014-8.959 6.04-13.192 9.348-.473.369.009 1.218.556.866 5.313-3.415 10.381-7.307 15.453-11.069.408-.301-.011-1.043-.468-.732zM510.065 524.345c.209-.234-.122-.71-.39-.47a145.776 145.776 0 00-9.007 8.783c-.329.351.197 1.094.597.719 3.05-2.86 6.007-5.92 8.8-9.032zM503.851 532.685l-2.207.742c-.323.108-.145.681.197.568l2.211-.731c.33-.108.149-.696-.201-.579zM643.078 614.965c-4.527-15.515-20.243-22.722-33.751-28.772-.341-.153-.526.402-.218.547 11.331 5.305 23.576 11.353 29.87 22.758 6.539 11.851 2.779 26.659-11.048 30.333-.89.236-.52 1.836.383 1.757 12.548-1.105 17.877-15.955 14.764-26.623zM639.429 641.685l-9.574 2.203c-.323.074-.266.652.056.578l9.573-2.216c.315-.073.26-.638-.055-.565z" fill="#fff"/><path d="M643.846 640.193c-5.407.426-10.817.811-16.212 1.366-.469.048-.392.854.079.817 5.406-.427 10.797-1.023 16.191-1.58.346-.036.289-.63-.058-.603zM646.804 637.518c-6.139.224-12.277.451-18.415.726-.405.018-.338.72.068.703 6.136-.251 12.269-.549 18.403-.851.333-.017.276-.59-.056-.578zM649.737 632.828c-7.614.115-15.236.203-22.84.623-.482.027-.395.834.08.829 7.611-.071 15.218-.473 22.819-.85.349-.016.287-.607-.059-.602zM641.637 629.153c-5.406.93-10.826 1.793-16.214 2.82-.474.09-.399.925.081.842 5.412-.936 10.795-2.037 16.189-3.071.333-.065.281-.649-.056-.591zM643.139 624.925c-5.145.75-10.331 1.369-15.446 2.303-.423.077-.364.809.073.754 5.162-.653 10.296-1.628 15.43-2.466.335-.055.282-.64-.057-.591zM640.894 622.456c-4.914.441-9.835.832-14.734 1.416-.483.058-.405.881.081.842 4.918-.398 9.819-.989 14.723-1.53.418-.046.35-.766-.07-.728zM639.443 618.352c-4.175.215-8.355.39-12.527.677-.456.031-.38.817.076.792 4.173-.231 8.339-.574 12.507-.878.341-.026.284-.609-.056-.591zM584.243 615.844c-9.295-3.023-18.598-6.01-27.957-8.828-.406-.122-.466.568-.099.694 9.263 3.178 18.579 6.188 27.909 9.163.59.189.702-.848.147-1.029zM586.357 616.722c-6.894 1.874-13.847 3.624-20.664 5.765-.46.145-.203.916.275.793 6.916-1.777 13.741-3.958 20.581-6.002.321-.096.145-.648-.192-.556zM594.456 618.92c-8.616 2.628-17.241 5.224-25.799 8.033-.433.142-.195.896.263.757 8.62-2.61 17.172-5.431 25.734-8.222.323-.106.145-.673-.198-.568zM596.726 621.31c-8.157 2.499-16.323 5.068-24.38 7.874-.485.169-.218 1.012.295.852 8.144-2.536 16.236-5.328 24.277-8.17.317-.111.143-.658-.192-.556zM597.533 625.301a1642.684 1642.684 0 00-20.726 5.543c-.496.136-.227 1.009.3.864a1661.64 1661.64 0 0020.628-5.827c.334-.097.15-.672-.202-.58zM594.311 629.102c-3.955 2.412-7.909 4.825-11.823 7.302-.473.3.002 1.136.523.815 3.942-2.432 7.843-4.928 11.743-7.426.403-.257-.001-.96-.443-.691z" fill="#fff"/><path d="M648.081 658.399c-10.056-2.335-21.071-4.697-29.066-11.683-7.089-6.194-11.459-16.256-7.73-25.399.137-.336-.339-.635-.498-.266-3.521 8.187-1.118 17.074 4.478 23.746 7.988 9.524 21.059 12.423 32.631 14.891.765.164.903-1.122.185-1.289zM698.437 664.614c.514-.332.063-1.422-.537-1.107-2.65 1.391-5.341 2.479-8.046 3.402-.078-.111-.19-.183-.351-.099-.417.218-.836.44-1.254.659-3.679 1.125-7.391 1.846-11.112 2.094.443-.313.173-1.24-.356-.944l-1.821 1.02c-8.368.167-16.737-1.897-24.771-6.343-.329-.182-.478.356-.213.535 6.495 4.397 14.372 6.831 22.37 7.278-3.256 1.834-6.501 3.701-9.635 5.716-.407.261-.05 1.122.424.875 3.848-2.012 7.594-4.254 11.32-6.503a47.02 47.02 0 007.893-.598c-4.338 2.331-8.649 4.733-12.817 7.298-.382.235-.049 1.03.392.808 5.368-2.702 10.641-5.716 15.842-8.782 4.503-1.075 8.815-2.821 12.672-5.309zM696.258 667.843c-7.659 3.468-15.333 7.208-22.735 11.192-.458.246-.212 1.127.308.887 7.644-3.53 15.253-7.431 22.637-11.476.308-.169.146-.764-.21-.603zM698.274 668.175c-6.776 3.363-13.588 7.008-20.032 10.972-.414.255-.054 1.112.424.875 6.779-3.367 13.473-7.236 19.919-11.205.303-.187.039-.816-.311-.642zM701.249 671.203c-6.735 2.927-13.346 6.161-19.975 9.318-.57.271-.235 1.344.365 1.053 6.626-3.209 13.298-6.358 19.81-9.792.302-.157.144-.728-.2-.579zM701.326 674.293c-5.213 2.488-10.491 5.075-15.495 7.961-.517.298-.242 1.323.357 1.029 5.213-2.55 10.328-5.501 15.326-8.446.27-.159.132-.697-.188-.544zM697.091 617.88c-2.482.409-4.963.823-7.445 1.235.051-.263-.045-.586-.334-.681-.867-.284-1.736-.564-2.603-.848l.932-.179c.366-.071.312-.713-.063-.653-.764.121-1.53.247-2.295.368-5.692-1.861-11.392-3.71-17.123-5.456.439-.243.887-.477 1.319-.727.254-.147.137-.627-.176-.509-.747.281-1.492.591-2.237.896a407.715 407.715 0 00-7.859-2.294c-.399-.112-.443.545-.096.669 2.15.767 4.31 1.506 6.473 2.237-3.132 1.344-6.232 2.853-9.221 4.391-.477.245-.222 1.145.316.911 3.411-1.482 6.872-3.094 10.189-4.864a659.755 659.755 0 0011.24 3.638c-5.409.865-10.966 1.448-16.301 2.682-.426.098-.385.83.075.779 5.455-.601 10.904-1.898 16.305-2.874.245-.044.278-.368.147-.517 1.521.479 3.044.946 4.566 1.419-5.888.934-11.782 1.885-17.619 3.062-.49.099-.423.956.085.879 6.407-.965 12.787-2.202 19.153-3.438 1.371.425 2.741.853 4.111 1.278-4.621.77-9.239 1.553-13.847 2.392-.447.081-.377.864.076.792 7.449-1.192 14.877-2.519 22.305-3.834.426-.076.357-.825-.073-.754zM700.47 619.267c-7.745 1.343-15.552 2.589-23.237 4.239-.404.087-.352.794.07.729 7.771-1.21 15.509-2.845 23.225-4.365.338-.067.286-.663-.058-.603zM704.816 622.032a531.648 531.648 0 00-24.087 5.127c-.484.115-.418.979.085.879a534.569 534.569 0 0024.066-5.34c.363-.089.32-.738-.064-.666zM700.47 626.314a649.77 649.77 0 00-8.607-.05c-.376 0-.313.651.063.653 2.868.014 5.734.011 8.601-.013.341-.003.281-.586-.057-.59zM707.6 651.748c-8.763-4.689-19.149-4.557-27.815.295-.286.16-.119.723.193.556 8.566-4.579 18.712-4.542 27.268.037.536.287.841-.628.354-.888zM746.396 725.693c-7.362-20.093-16.822-39.624-25.293-59.274-.16-.372-.664-.142-.517.219a21208.652 21208.652 0 0019.7 47.896c2.903 7.036 6.536 14.358 7.31 22.029.907 8.996-2.903 18.898-12.531 21.108-.835.192-.734 1.667.146 1.52 15.919-2.652 15.453-21.85 11.185-33.498zM695.485 713.652a1121.907 1121.907 0 00-7.815-18.564c2.513.448 5.017.877 7.474 1.33.733.135.862-1.078.176-1.227-2.771-.602-5.591-1.249-8.423-1.876-.912-2.092-1.795-4.197-2.737-6.276-.156-.345-.619-.138-.486.205.764 1.973 1.586 3.923 2.377 5.886-4.966-1.086-9.981-2.061-14.938-2.419-.297-.021-.331.396-.069.483 5.036 1.684 10.396 2.771 15.732 3.734a1096.667 1096.667 0 007.965 19.039c.23.536.957.203.744-.315zM679.214 682.59c.218-.235-.13-.728-.398-.479-2.388 2.212-4.833 4.45-7.002 6.879-.275.307.16.932.513.618 2.433-2.169 4.671-4.629 6.887-7.018z" fill="#fff"/><path d="M682.231 682.07c-1.848 1.401-3.651 2.873-5.441 4.363-.16-.258-.487-.405-.757-.102l-2.655 2.987c-.378.425.208 1.267.704.849 2.889-2.431 5.794-4.894 8.546-7.48.302-.282-.016-.906-.397-.617zM684.193 684.364c-2.264 1.423-4.42 3.041-6.563 4.666-.134-.254-.401-.427-.635-.19-.836.844-1.676 1.681-2.49 2.545-.424.45.017 1.422.615.957 3.145-2.452 6.438-4.8 9.391-7.483.251-.228.001-.695-.318-.495zM700.199 686.728c.238-.16.028-.673-.252-.52-4.588 2.502-9.159 5.144-13.592 7.93 3.725-2.831 7.504-5.606 11.124-8.571.258-.211-.006-.687-.311-.484-3.344 2.215-6.589 4.584-9.844 6.932.145-.304.293-.606.437-.91.015-.031-.003-.056.005-.087 2.714-1.726 5.422-3.463 8.03-5.333.235-.169.031-.689-.258-.531-.779.426-1.545.876-2.314 1.322.197-.222-.03-.729-.337-.561-3.582 1.963-7.131 3.986-10.683 6.001l.43-.67c3.238-1.841 6.424-3.782 9.605-5.714.273-.166.029-.743-.279-.576-.732.398-1.464.798-2.197 1.195.02-.264-.15-.547-.442-.417-4.302 1.919-8.72 3.855-12.834 6.15-.456.254-.23 1.125.312.899 2.197-.917 4.37-1.955 6.519-3.04-.355.203-.705.413-1.061.614-.127-.014-.257.026-.368.188l-.029.042c-.694.395-1.393.782-2.073 1.2-.402.248-.045 1.098.413.853.139-.075.272-.16.41-.235-.175.255-.352.51-.526.766-.249.365.067 1.268.604.944l1.455-.876c-.01.007-.02.013-.029.021-.548.395.013 1.38.628.978 1.131-.74 2.272-1.468 3.415-2.195-.257.492-.516.982-.768 1.477-.23.452.276 1.006.722.767-.364.23-.744.442-1.106.674-.498.319-.067 1.115.468.952l.017.05c5.007-2.871 9.921-6.023 14.709-9.235zM698.626 688.165c-2.054 1.298-4.052 2.686-6.042 4.085-.037.015-.069-.006-.106.021l-3.871 2.755c-.533.379.037 1.389.613.953 3.231-2.448 6.569-4.778 9.712-7.34.253-.208-.005-.665-.306-.474zM699.962 689.53c.156-.285-.18-.716-.416-.39-1.005 1.385-2.026 2.721-2.829 4.244-.21.397.358.875.659.474 1.022-1.359 1.772-2.847 2.586-4.328zM693.779 696.78c-.267-.267-.565.215-.327.453.267.267.565-.216.327-.453zM710.129 722.144c-1.52-.267-3.044-.505-4.571-.734 1.475.212 2.952.409 4.425.584.616.073.733-.938.147-1.029a190.723 190.723 0 00-7.978-1.051c.238-.092.464-.203.706-.287 2.489.38 4.977.765 7.47 1.111.536.074.634-.822.128-.893-.323-.045-.646-.081-.969-.125.178-.296.12-.773-.285-.844-.677-.119-1.366-.243-2.054-.362.342-.189.259-.842-.191-.797-.868.087-1.713.251-2.546.445-.261-.023-.523-.076-.783-.087-.253-.012-.362.191-.355.41-.3.089-.587.21-.878.32l-.318-.041c-.203-.026-.32.121-.356.286l-.076.028c.009-.078-.002-.158-.064-.22-.22-.22-.45.138-.302.354-.35.146-.682.326-1.022.491-.242-.024-.484-.058-.726-.081-.359-.034-.502.379-.367.633-.103.058-.199.128-.302.188l-.825-.118c-.526-.077-.713.584-.469.93a20.302 20.302 0 00-2.236 1.807c-.176-.023-.354-.044-.53-.068-.522-.071-.644.637-.302.895-.186.194-.349.411-.527.612l-.802-.1c-.616-.079-.732.943-.147 1.029l.132.02a19.744 19.744 0 00-3.189 5.922c-.117.352.364.671.518.277a20.578 20.578 0 013.653-6.052c3.499.522 6.999 1.058 10.506 1.518.007.399.427.821.795.499l.54-.471c.334-.291.271-1.027-.236-1.102-3.557-.528-7.129-.959-10.697-1.404.157-.159.3-.334.461-.487 3.796.66 7.629 1.439 11.46 1.77.658.057.786-.966.158-1.103-3.46-.756-7.034-1.151-10.562-1.595.186-.153.352-.331.543-.478a.37.37 0 00.307.133c3.908-.176 7.229.837 10.97 1.673.531.118.658-.704.246-.928a12.364 12.364 0 00-1.702-.741c1.011.15 2.02.312 3.033.443.705.09.837-1.062.169-1.18z" fill="#fff"/><path d="M704.766 728.571c.394-.193.419-.903-.093-1.001-3.455-.665-6.977-1.147-10.473-1.538-.534-.06-.634.791-.128.893.667.134 1.343.246 2.013.373-1.052-.119-2.106-.252-3.154-.353-.546-.052-.761.761-.265 1.001l.572.276c.196.095.335.026.44-.085 3.547.629 7.147 1.186 10.725 1.532.623.06.8-.814.363-1.098z" fill="#fff"/><path d="M703.282 729.883a186.607 186.607 0 00-9.786-1.612c-.007-.001-.008-.009-.015-.01l-.821-.114c-.548-.076-.644.803-.131.914 3.505.753 7.053 1.37 10.596 1.914.654.1.772-.974.157-1.092zM697.757 730.416l-4.98-.702c-.495-.07-.578.776-.117.818l5.016.454c.339.031.407-.524.081-.57z" fill="#fff"/><path d="M700.959 732.186c.331-.027.386-.489.178-.686l-.419-.399c-.213-.202-.459.01-.474.243-1.188-.129-2.39-.178-3.58-.239-1.555-.079-3.146-.252-4.701-.17-.57.03-.581 1.044-.025 1.111.422.051.852.057 1.279.077-.339.007-.683-.012-1.019.004-.73.034-.583 1.225.12 1.244 2.406.064 4.903-.107 7.297-.338.356-.034.38-.684.016-.711-.487-.037-.987-.053-1.481-.083.939.019 1.878.023 2.809-.053zM697.216 734.261c-1.165-.132-2.326.053-3.488.165-.646.062-.528 1.215.108 1.118 1.157-.176 2.336-.276 3.437-.69.247-.093.219-.562-.057-.593zM741.333 741.148c-3.644.869-7.2 2.183-10.731 3.422-.478.168-.215.996.292.84 3.545-1.092 7.168-2.138 10.585-3.591.303-.129.211-.756-.146-.671zM743.249 744.659c-4.419.971-8.858 1.877-13.255 2.943-.421.102-.364.855.074.766 4.434-.903 8.839-1.97 13.252-2.968.414-.094.345-.833-.071-.741zM742.792 745.791c-5.391 1.705-10.864 3.299-16.17 5.251-.493.181-.221 1.011.3.864 5.439-1.546 10.801-3.479 16.162-5.275.478-.16.215-1.001-.292-.84zM740.983 749.932c-4.552 1.553-9.147 3.02-13.658 4.688-.515.19-.232 1.091.316.911 4.569-1.502 9.079-3.213 13.609-4.83.435-.155.195-.926-.267-.769zM739.959 753.211c-4.706 1.099-9.493 2.201-14.098 3.667-.436.139-.272 1.003.197.903 4.728-1.014 9.434-2.432 14.066-3.814.368-.11.224-.847-.165-.756zM742.163 756.885c-5.655.913-11.314 1.809-16.95 2.829-.589.107-.495 1.141.101 1.043 5.657-.933 11.293-1.99 16.931-3.031.474-.087.4-.919-.082-.841zM745.859 759.312l-23.569 2.174c-.542.05-.452.995.091.942l23.557-2.3c.469-.046.392-.86-.079-.816zM748.053 762.171c-8.841.43-17.685.854-26.519 1.411-.558.035-.465.995.093.967 8.838-.442 17.672-1.018 26.502-1.587.457-.029.38-.813-.076-.791zM744.356 765.138c-8.215-.158-16.466-.418-24.681-.257-.602.012-.483 1.011.099 1.03 8.206.268 16.453.119 24.663.068.487-.002.399-.831-.081-.841zM745.105 767.548c-6.724-.279-13.539.058-20.267.199-.601.013-.5 1.051.101 1.043 6.72-.092 13.536.014 20.238-.501.439-.034.343-.724-.072-.741zM747.31 770.86c-5.152-.034-10.337.273-15.476.623-.538.037-.444.944.09.93 5.145-.14 10.333-.325 15.454-.849.411-.043.332-.702-.068-.704zM769.386 761.239c-.039-.306-.423-.26-.42.041.04 4.077-1.677 7.785-4.97 10.228-.426.316.024 1.119.497.773 3.514-2.568 5.443-6.696 4.893-11.042zM768.215 760.932c-2.818.81-5.749 1.475-8.5 2.489-.413.152-.267.989.191.878 2.886-.7 5.715-1.784 8.542-2.693.388-.124.175-.791-.233-.674z" fill="#fff"/><path d="M769.048 763.956c-3.446.406-6.883.869-10.316 1.369-.589.086-.488 1.121.099 1.03a379.95 379.95 0 0010.282-1.721c.381-.069.328-.725-.065-.678zM768.739 766.042c-4.47.794-9.013 1.577-13.398 2.758-.464.125-.284 1.019.205.939 4.482-.729 8.942-1.898 13.342-3.014.338-.086.206-.747-.149-.683zM766.817 769.7c-4.901.585-9.906 1.082-14.747 2.049-.503.101-.443.955.087.905 4.918-.463 9.859-1.427 14.725-2.276.382-.067.327-.725-.065-.678zM762.033 772.276c-3.936.655-7.884 1.318-11.791 2.128-.546.113-.469 1.074.094.98 3.94-.661 7.865-1.475 11.775-2.291.455-.095.392-.895-.078-.817zM759.461 774.903c-4.547.561-9.099 1.085-13.636 1.721-.567.079-.474 1.066.096.993 4.546-.587 9.078-1.286 13.614-1.947.437-.065.367-.822-.074-.767zM757.614 777.44c-3.064.311-6.174.516-9.216.998-.527.084-.45.974.089.93 3.071-.251 6.143-.788 9.195-1.211.41-.057.346-.759-.068-.717zM756.511 780.764c-2.95.445-5.905.869-8.848 1.36-.572.095-.475 1.1.097 1.005 2.948-.491 5.886-1.05 8.826-1.586.439-.08.373-.847-.075-.779zM775.341 818.511c-4.046-13.489-9.593-26.609-14.467-39.815-.17-.461-.769-.176-.62.262 4.527 13.342 8.473 27.047 13.826 40.086.38.927 1.53.366 1.261-.533zM746.843 851.8c-13.852-15.713-25.479-32.453-33.239-52.043-7.078-17.868-10.491-40.391 4.881-55.127.257-.247-.05-.799-.338-.526-14.219 13.497-13.52 34.044-7.654 51.327 7.176 21.139 19.679 41.794 35.424 57.651.769.775 1.537-.589.926-1.282zM775.458 852.261c.673-.755-.491-2.016-1.223-1.147-5.487 6.515-15.325 7.917-22.375 3.072-.24-.165-.451.285-.241.441 7.33 5.452 17.729 4.49 23.839-2.366zM782.066 839.205c-7.364-9.826-19.78-13.604-31.449-10.049-.325.099-.148.673.197.568 11.217-3.418 23.498.773 30.617 9.997.353.456.953-.092.635-.516zM825.268 924.591c-3.441-13.491-8.039-26.656-13.581-39.424-.155-.357-.641-.135-.496.209 4.144 9.866 7.707 19.942 10.568 30.255 2.768 9.978 8.398 25.074-1.889 32.587-.774.565.027 1.985.895 1.392 8.459-5.779 6.691-16.439 4.503-25.019z" fill="#fff"/><path d="M772.736 853.28c-4.737 2.999-9.372 6.288-13.86 9.649-.399.298.011 1.024.464.722 4.667-3.115 9.312-6.395 13.721-9.866.275-.217-.005-.708-.325-.505zM775.594 854.134c-5.289 3.851-10.578 7.714-15.752 11.719-.33.255.018.879.391.608 5.297-3.846 10.49-7.843 15.673-11.842.262-.203-.016-.701-.312-.485zM777.498 855.035c-5.473 4.639-10.993 9.266-16.278 14.119-.369.338.042 1.108.477.742 5.503-4.626 10.811-9.516 16.125-14.356.253-.229-.03-.754-.324-.505zM778.963 858.44c-6.463 4.943-12.926 9.965-19.139 15.219-.439.372.029 1.234.543.846 6.496-4.907 12.819-10.112 19.066-15.333.384-.32-.027-1.07-.47-.732zM779.589 862.071c-6.025 4.328-12.035 8.905-17.682 13.716-.38.323.018 1.059.47.732 6.018-4.353 11.891-9.119 17.529-13.953.256-.219-.011-.715-.317-.495zM778.811 867.334c.239-.251-.045-.805-.338-.526-3.359 3.198-6.839 6.358-9.967 9.785-.303.332.178 1.019.558.673 3.417-3.112 6.56-6.587 9.747-9.932zM780.444 870.754a1010.834 1010.834 0 00-7.89 4.855c-.599.372.003 1.444.662 1.031a991.731 991.731 0 007.83-4.948c.547-.349-.001-1.303-.602-.938zM758.398 839.861c-2.179 1.717-4.372 3.453-6.405 5.342-.405.377.035 1.222.53.825 2.175-1.745 4.22-3.675 6.246-5.59.28-.264-.021-.853-.371-.577zM763.27 840.813c-3.615 2.475-7.061 5.379-10.38 8.238-.355.306.024 1.01.444.691 3.495-2.656 7.055-5.431 10.24-8.455.232-.219-.001-.681-.304-.474zM765.195 843.69c-3.514 2.347-6.934 4.822-10.303 7.37-.447.338.016 1.163.523.815 3.485-2.39 6.917-4.852 10.257-7.443.404-.313-.011-1.053-.477-.742zM768.638 844.198c-3.732 2.728-7.443 5.615-10.897 8.688-.442.394.026 1.28.563.877 3.708-2.784 7.28-5.862 10.705-8.987.287-.263-.013-.84-.371-.578zM768.587 847.03c-2.854 2.354-5.672 4.788-8.366 7.324-.548.516.06 1.678.722 1.124 2.843-2.379 5.598-4.898 8.28-7.458.477-.456-.047-1.476-.636-.99zM771.065 850.811c.389-.413-.069-1.325-.557-.866a232.78 232.78 0 00-4.966 4.822c-.499.499.117 1.594.669 1.042a233.464 233.464 0 004.854-4.998zM719.14 861.392c-1.516.778-3.092 1.495-4.544 2.387-.351.216-.045.943.36.742 1.508-.752 2.932-1.707 4.377-2.573.275-.164.128-.72-.193-.556z" fill="#fff"/><path d="M718.493 858.948c.249-.309-.189-.781-.477-.447-1.664 1.935-3.387 3.834-4.957 5.847-.294.377.222.931.573.537 1.698-1.91 3.256-3.949 4.861-5.937zM722.922 863.53c.363-.37-.079-1.184-.497-.773-2.171 2.131-4.418 4.209-6.498 6.428-.354.378.212 1.178.643.775 2.194-2.057 4.245-4.284 6.352-6.43zM725.457 865.836c-2.193 1.703-4.379 3.426-6.498 5.22-.452.383.056 1.289.556.866 2.134-1.806 4.21-3.688 6.267-5.581.249-.229-.018-.743-.325-.505zM729.275 867.63c-2.968 2.258-5.969 4.479-8.87 6.822-.505.408.033 1.38.61.949 2.988-2.238 5.882-4.602 8.804-6.925.452-.361-.034-1.234-.544-.846zM731.726 870.08c-3.002 2.125-6.148 4.347-8.87 6.822-.483.439.003 1.363.616.959 3.073-2.027 6.001-4.537 8.804-6.925.444-.379-.017-1.233-.55-.856zM735.233 871.661c-3.396 2.374-6.783 5.003-9.889 7.747-.435.384.019 1.24.55.856 3.367-2.431 6.679-5.168 9.75-7.964.319-.291-.009-.921-.411-.639zM738.102 874.488c-3.297 2.562-6.719 5.052-9.832 7.835-.463.414.017 1.326.59.918 3.401-2.425 6.582-5.221 9.806-7.876.461-.381-.038-1.286-.564-.877zM740.079 875.49c-3.507 2.984-7.09 6.017-10.343 9.277-.436.437.036 1.4.603.938 3.575-2.913 6.952-6.185 10.277-9.38.402-.385-.047-1.251-.537-.835zM743.532 879.077c.216-.26-.12-.756-.421-.507-2.646 2.194-5.23 4.767-7.525 7.327-.324.362.189 1.1.604.728 2.569-2.298 5.135-4.899 7.342-7.548zM748.409 879.883c-2.154 1.762-4.31 3.52-6.439 5.313-.556.469.071 1.582.682 1.062 2.127-1.808 4.225-3.649 6.326-5.488.454-.397-.046-1.314-.569-.887zM755.751 880.614c.27-.276-.058-.884-.371-.577-3.325 3.252-6.745 6.44-9.92 9.839-.278.297.166.925.505.609 3.384-3.156 6.551-6.564 9.786-9.871zM761.758 881.501c-3.505 2.668-7.066 5.33-10.386 8.227-.427.372.026 1.218.537.835 3.534-2.649 6.886-5.586 10.234-8.465.307-.264-.022-.874-.385-.597zM765.559 882.286c-3.453 2.737-7.064 5.38-10.274 8.403-.429.404.006 1.261.563.877 3.624-2.502 6.954-5.486 10.346-8.29.522-.43-.046-1.456-.635-.99zM768.584 883.664c.352-.373-.062-1.199-.504-.784a225.468 225.468 0 00-4.482 4.321c-.472.469.112 1.5.63.98a229.17 229.17 0 004.356-4.517zM800.082 953.227l-3.437 2.455c-.282.201.013.727.324.505l3.437-2.455c.283-.202-.013-.728-.324-.505z" fill="#fff"/><path d="M807.271 952.439c.513-.359 1.034-.707 1.546-1.067.166-.117.139-.325.033-.46 3.313-3.643 5.083-8.652 4.102-14.228-.066-.377-.66-.504-.672-.038-.297 11.217-8.68 19.645-20.174 17.985-1.165-.168-1.379 1.744-.278 1.947 3.157.58 6.267.309 9.107-.604-2.74 1.865-5.495 3.707-8.216 5.599-.355.247.011.895.404.629 3.677-2.486 7.316-5.028 10.96-7.562a18.307 18.307 0 003.188-2.201zM806.437 965.216c-5.581 2.233-11.215 4.382-16.72 6.796-.603.264-.273 1.352.382 1.1 5.615-2.155 11.134-4.59 16.675-6.927.535-.224.237-1.198-.337-.969zM815.065 966.296c-5.954 2.81-11.872 5.704-17.77 8.627-.556.276-.235 1.328.361 1.041 5.935-2.859 11.858-5.75 17.737-8.722.502-.253.219-1.204-.328-.946zM821.843 965.125c-6.154 3.248-12.352 6.649-18.248 10.346-.416.26-.049 1.138.429.886 6.162-3.247 12.216-6.916 18.119-10.612.292-.182.035-.797-.3-.62zM827.037 963.582c-8.492 5.064-16.71 10.744-24.877 16.314-.592.404.014 1.475.669 1.042 8.223-5.444 16.582-10.902 24.46-16.835.224-.17.025-.686-.252-.521zM823.441 970.787a367.353 367.353 0 00-18.289 9.023c-.593.313-.26 1.453.394 1.136a370.648 370.648 0 0018.154-9.413c.379-.211.181-.947-.259-.746zM711.106 670.856c2.125-7.323-2.013-15.293-8.844-18.345-.349-.156-.531.398-.222.558 6.587 3.405 9.473 10.338 8.199 17.47-.092.516.698.899.867.317z" fill="#fff"/><path d="M709.926 668.831c-2.879-4.461-5.924-8.807-8.978-13.149-.227-.322-.621.049-.429.349 2.875 4.47 5.757 8.934 8.808 13.287.316.45.868-.07.599-.487zM718.768 661.454c-2.694-4.548-5.819-8.906-8.85-13.237-.326-.465-.886.068-.617.501 2.795 4.492 5.577 9.086 8.707 13.353.416.566 1.079-.079.76-.617zM721.541 657.682c-2.035-4.765-4.42-9.41-6.775-14.022-.17-.334-.637-.012-.501.302 2.06 4.766 4.123 9.569 6.505 14.185.264.513.977.019.771-.465zM724.266 654.872c-1.468-4.251-3.382-8.386-5.135-12.525-.161-.381-.668-.148-.527.223 1.595 4.205 3.071 8.517 4.949 12.604.233.505.89.209.713-.302zM726.997 654.939c-2.289-5.008-4.931-9.91-7.522-14.767-.196-.368-.72-.012-.559.337 2.303 5.01 4.607 10.092 7.214 14.953.305.57 1.115.02.867-.523zM729.313 654.151c-2.054-4.76-4.484-9.37-6.793-14.009-.16-.321-.618-.011-.482.291 2.138 4.73 4.178 9.535 6.571 14.143.243.467.894.017.704-.425z" fill="#fff"/><path d="M731.908 654.318c-.939-3.264-1.9-6.523-2.933-9.759a26.153 26.153 0 011.343 3.255c.195.584.94.222.773-.326-.79-2.603-1.536-5.218-2.284-7.833-.107-.373-.574-.14-.486.205.094.365.206 1.192.355 2.119-.938-1.534-2.149-2.982-3.274-4.208-3.708-4.04-8.433-6.659-13.738-7.917-.541-.128-.64.79-.131.917 7.437 1.858 13.56 6.51 17.059 13.115a.31.31 0 00-.287.399c.87 3.474 1.829 6.924 2.806 10.369.173.607.961.232.797-.336z" fill="#fff"/><path d="M722.456 641.285c-1.753-1.47-3.502-2.953-5.26-4.426 2.328.478 4.645 1.004 6.977 1.467.584.116.684-.852.14-.979-3.003-.705-6.01-1.386-9.017-2.067-1.917-1.583-3.851-3.145-5.833-4.638-.599-.452-1.17.458-.654.906a147.254 147.254 0 003.686 3.09c-4.141-.927-8.286-1.832-12.439-2.712-.765-.162-.905 1.13-.184 1.289 4.89 1.085 9.799 2.073 14.701 3.092 2.431 1.932 4.892 3.829 7.332 5.739.499.39.989-.394.551-.761zM691.569 795.911c2.531-9.336 4.896-18.719 7.37-28.07.071-.267-.366-.456-.444-.162-2.485 9.344-5.079 18.661-7.508 28.02-.09.349.478.596.582.212zM693.308 806.287c3.479-10.301 6.791-20.658 10.154-30.997.106-.327-.354-.621-.477-.255-3.457 10.298-6.965 20.58-10.306 30.916-.14.431.465.819.629.336zM699.069 815.098c3.14-10.747 6.044-21.575 8.949-32.388.091-.341-.386-.654-.498-.266-3.108 10.779-6.223 21.573-9.096 32.417-.103.388.521.662.645.237zM703.586 825.356c2.147-9.772 3.992-19.638 5.784-29.48.07-.383-.462-.512-.549-.116-2.133 9.774-4.226 19.589-6.004 29.434-.097.536.647.716.769.162zM708.29 832.777c2.047-8.817 3.894-17.683 5.798-26.531a.258.258 0 00-.505-.106c-2.023 8.823-4.104 17.637-5.985 26.492a.354.354 0 00.692.145zM711.64 841.833c2.679-9.277 5.268-18.659 7.447-28.068.069-.298-.396-.509-.497-.182-2.844 9.223-5.314 18.628-7.658 27.99-.106.426.573.728.708.26zM717.77 854.764c1.462-9.745 2.614-19.574 3.681-29.37.042-.38-.489-.523-.549-.116-1.435 9.745-2.794 19.542-3.834 29.337-.052.488.624.671.702.149zM724.475 863.703a4007.98 4007.98 0 004.43-27.982c.073-.473-.6-.644-.681-.143a4008.387 4008.387 0 00-4.408 27.987c-.07.458.581.623.659.138zM732.828 866.57c.964-5.895 1.899-11.794 2.837-17.693.062-.389-.493-.53-.56-.118-.964 5.894-1.932 11.788-2.87 17.686-.065.411.522.56.593.125zM575.9 528.873c.121-.884-.979-1.379-1.406-.515-.562 1.138-.719 2.499-1.762 3.357-.659.542-2.175.775-2.703-.122-.764-1.299 1.459-2.19 2.285-2.567.844-.385 1.536-.769 2.105-1.515.236-.31-.185-.767-.468-.439-1.265 1.467-3.618 1.274-4.78 2.887a2.333 2.333 0 00.349 3.152c3.001 2.633 6.002-1.489 6.38-4.238zM581.696 529.187c.087-.548-.437-.981-.867-.906.142-.117.272-.238.417-.354.261-.21.059-.749-.295-.609-2.338.928-4.091 2.966-5.33 5.097-.334.575-.06 1.299.638 1.336 2.684.14 5.024-1.975 5.437-4.564zm-1.321-.483c-.5 1.454-1.462 2.481-2.754 3.024.738-1.191 1.709-2.163 2.793-3.094-.011.025-.029.04-.039.07zM547.708 511.111c.413-4.172 1.481-7.781 3.471-11.471.219-.406-.371-.902-.678-.488-2.479 3.349-3.842 7.748-3.685 11.909.02.55.834.627.892.05z" fill="#fff"/><path d="M554.8 508.956c-.483-.415-1.031-.749-1.571-1.088 1.483-2.275 2.802-4.683 4.161-7.03.159-.274.085-.65-.25-.742-2.392-.661-4.758-1.392-7.17-1.989-.324-.08-.35.434-.076.533 2.161.78 4.353 1.451 6.534 2.164-1.436 2.386-2.937 4.766-4.195 7.245-.186.365.348.831.612.44.016-.023.029-.049.044-.072.507.409 1.01.832 1.571 1.159.364.212.612-.386.34-.62z" fill="#fff"/><path d="M552.235 514.371c-.086-.041-.177-.079-.263-.12.852-1.409 1.556-2.947 2.328-4.389.125-.234-.235-.542-.395-.285-.891 1.426-1.886 2.844-2.692 4.327-1.199-.558-2.432-1.096-3.695-1.415-.397-.1-.441.493-.177.666 1.384.904 2.98 1.567 4.508 2.184.611.246.934-.705.386-.968zM549.926 552.993c1.047-6.342 4.789-11.488 10.57-14.338.416-.205.183-.988-.271-.781-6.118 2.799-10.294 8.238-11.31 14.906-.107.702.888.957 1.011.213z" fill="#fff"/><path d="M566.015 544.06c.905-3.226-.987-6.164-4.135-6.986-.282-.074-.356.384-.132.499 1.481.486 2.181 1.66 2.101 3.525 1.846 2.299 1.451 4.195-1.186 5.688-1.169 1.07-2.622 2.009-3.882 2.97-2.497 1.904-4.997 3.803-7.496 5.703-.362-.427-.719-.857-1.082-1.283-.24-.281-.59.171-.405.431.349.492.703.982 1.054 1.473.019.216.146.422.337.471.1.137.194.277.296.413.349.467.965-.107.635-.515-.071-.088-.148-.173-.22-.26 2.895-2.209 5.788-4.421 8.688-6.624 2.098-1.594 4.671-2.81 5.427-5.505zM526.076 639.917c-.384-2.2-1.749-4.36-2.695-6.355-1.16-2.449-2.31-4.902-3.493-7.34-.166-.343-.644-.391-.922-.181-1.485 1.122-2.984 2.227-4.48 3.335-.711.527.055 1.884.828 1.289 1.27-.979 2.541-1.956 3.817-2.927 1.162 2.527 2.348 5.044 3.527 7.563.494 1.056 1.241 2.274 1.572 3.399 1.123 3.819-.647 5.158-3.303 6.695-2.666 1.543-4.661-.258-5.611-2.993-.417-1.2-.446-2.694-.653-3.939-.508-3.064-1.003-6.131-1.549-9.189-.12-.674-1.053-.608-.962.093.657 5.076.735 11.02 2.299 15.893 1.103 3.437 3.79 3.509 6.661 2.006 2.883-1.508 5.578-3.829 4.964-7.349zM474.776 595.174c.133.034.271.072.394.101.356.084.432-.467.164-.618-.132-.075-.285-.136-.424-.207-.098-.495-.672-.823-.985-.442-1.192-.452-2.506-.665-3.67-.158-1.182.515-2.113 1.845-1.954 3.164.181 1.512 1.651 2.282 3.062 2.035 1.926-.337 2.841-2.184 3.413-3.875zm-3.038 2.328c-1.145.556-2.796-.06-2.138-1.509.739-1.627 2.433-1.478 3.976-1.12-.363 1.038-.825 2.137-1.838 2.629zM421.793 442.113c-5.649.8-10.075 5.237-11.737 10.565-.184.591.643 1.126.864.461 1.787-5.394 5.728-8.68 10.988-10.502.253-.087.161-.563-.115-.524zM410.232 466.39c-2.154-3.566-2.703-7.963-1.133-11.867.13-.323-.315-.605-.477-.255-1.954 4.227-1.874 8.955.556 12.978.499.829 1.505-.11 1.054-.856zM340.639 398.948c-9.968-5.796-21.98.719-23.128 12.001-.04.395.503.544.571.12 1.751-10.898 12.506-15.966 22.153-11.107.626.314.943-.701.404-1.014zM385.392 406.221c-2.957-3.358-7.559-5.013-11.985-4.185-3.455.646-7.865 3.097-8.725 6.749-.052.222.213.442.405.29 1.14-.898 1.923-2.119 3.029-3.071a12.027 12.027 0 015.905-2.721c4.095-.641 7.818 1.03 10.758 3.786.531.498 1.014-.392.613-.848zM367.327 328.707c-8.167 2.4-17.215 1.508-25.251-.962-.354-.109-.407.496-.087.607 8.527 2.969 16.77 2.876 25.576 1.452.715-.114.489-1.31-.238-1.097zM310.7 332.462c-9.217 3.098-18.829 2.322-27.72-1.45-.373-.158-.562.418-.236.592 8.817 4.695 18.969 5.216 28.44 2.254.794-.248.36-1.68-.484-1.396zM385.698 233.854c-.083-7.469-9.832-13.165-16.021-15.242-7.446-2.5-16.201-2.067-22.939 2.141-.285.178-.041.683.279.576 6.209-2.074 12.346-3.482 18.89-2.058 6.894 1.5 17.103 6.909 18.109 14.745.158 1.222 1.695 1.04 1.682-.162zM387.082 543.849c-6.974-10.895-2.31-24.183 4.211-34.173.252-.386-.267-.963-.564-.529-6.44 9.412-12.999 25.261-4.71 35.565.606.754 1.545-.112 1.063-.863zM639.827 677.565c-1.111-7.983 1.585-14.523 6.876-20.392.24-.266-.115-.738-.428-.516-6.459 4.576-9.337 13.434-8.051 21.063.19 1.129 1.765 1.007 1.603-.155zM671.461 626.046c-.779-11.476 4.973-20.815 16.617-23.53.329-.077.296-.651-.058-.603-11.529 1.566-20.547 12.443-18.085 24.28.22 1.056 1.603.983 1.526-.147zM751.312 687.622c-10.257 8.396-22.407 14.492-35.903 14.75-1.147.022-.961 2.161.193 1.998 13.449-1.9 26.218-6.51 36.035-16.242.237-.235-.021-.755-.325-.506zM704.486 705.28c-3.544.395-7.05 1.548-10.501 2.446-3.918 1.019-7.932 1.878-11.763 3.187-.839.287-.534 1.956.383 1.757 3.536-.768 6.988-1.943 10.457-2.969 3.848-1.139 7.926-2.05 11.576-3.725.315-.145.228-.738-.152-.696zM779.57 785.348c.367-.888-.821-2.031-1.478-1.064-6.537 9.618-14.301 14.05-26.029 13.862-.381-.006-.334.616-.016.699 10.203 2.661 23.46-3.671 27.523-13.497zM732.329 802.076c.766-1.086-.761-2.728-1.605-1.504-7.617 11.038-17.823 15.536-30.417 18.604-.246.06-.317.532-.012.549 12.551.703 25.062-7.77 32.034-17.649zM822.752 873.301c.323-.9-.91-2.177-1.535-1.105-6.487 11.121-14.16 18.767-26.821 22.473-.294.086-.181.647.13.598 11.823-1.872 24.076-10.395 28.226-21.966zM773.541 904.324c.524-1.023-.948-2.292-1.705-1.227-4.808 6.773-10.018 12.335-18.004 15.355-6.736 2.547-13.85 2.589-20.854 1.309-.351-.064-.38.469-.081.57 14.982 5.067 33.324-1.716 40.644-16.007zM532.938 475.714c2.141-26.982 2.892-54.071 4.437-81.089.041-.713-.983-.989-1.032-.217-1.727 26.96-4.247 53.895-5.382 80.891-.057 1.348 1.859 1.907 1.977.415zM530.852 471.928c-.655-11.468-1.512-22.928-2.261-34.39-.461-7.037-6.214-40.396 4.953-41.519.516-.052.626-.901.153-1.101-8.906-3.772-9.297 8.935-8.94 14.49 1.344 20.894 2.796 41.808 4.459 62.679.094 1.184 1.704 1.02 1.636-.159zM634.219 417.277c-.058-.068-.123-.064-.187-.084-.068-.391-.545-.709-.892-.309-16.162 18.627-32.665 37.021-48.603 55.851-2.06 1.874-4.137 3.73-6.181 5.62-.483.446-.326 1.236.071 1.602-.211.254-.428.502-.639.755-.583.703.421 1.774 1.093 1.024 1.966-2.193 3.89-4.426 5.839-6.636 13.353-12.098 26.522-24.402 39.888-36.485 5.958-5.383 16.938-12.776 9.611-21.338zm-27.095 35.093c-3.91 3.522-7.833 7.032-11.752 10.547 12.825-14.887 25.423-29.988 38.203-44.893 7.029 9.284-20.423 28.915-26.451 34.346zM695.784 527.179c-.471-4.516-1.007-9.012-1.761-13.49-.012-.072-.045-.122-.065-.186 1.251-.284 2.504-.56 3.755-.845.683-.156.581-1.372-.119-1.231-32.672 6.576-65.301 13.476-97.776 20.965-.41.094-.537.561-.43.901-.584.053-1.169.098-1.753.153-.696.065-.578 1.239.116 1.206 32.388-1.519 64.714-4.225 97.08-6.153.635-.039 1.012-.747.953-1.32zm-5.226-.79c-2.073 1.559-9.722.745-12.121.92-8.756.639-17.513 1.269-26.27 1.903-16.255 1.177-32.519 2.306-48.755 3.73 29.623-5.921 59.162-12.329 88.625-19.007.399 4.666 2.677 9.329-1.479 12.454zM450.059 596.096c-25.691 8.341-51.284 17.394-77.303 24.654-.625.174-.752 1.048-.599 1.558.97 3.242 1.937 6.466 3.013 9.674.49 1.459 2.305.55 1.923-.812-1.148-4.094-2.991-6.075.245-9.586 1.741-1.889 7.244-2.576 9.566-3.361 7.044-2.38 14.085-4.77 21.136-7.131 10.488-3.512 20.987-6.995 31.482-10.485-20.746 10.124-41.998 19.873-61.75 31.721-.497.298-.269 1.276.353 1.017 23.316-9.718 45.655-22.475 68.091-34.054.398-.206.503-.658.423-1.055l3.73-1.242c.513-.169.232-1.074-.31-.898zM433.521 676.073c8.161-12.245 16.591-24.367 24.638-36.708l13.245-15.077c.467-.531-.327-1.382-.85-.797l-7.921 8.86c.895-1.414 1.819-2.811 2.7-4.232.67-1.082-.717-2.697-1.579-1.48-4.166 5.884-8.138 11.916-12.077 17.967l-19.784 22.129c-3.465 3.875-18.892 15.607-13.664 22.323 5.903 7.581 13.284-9.972 15.292-12.985zm-12.195 5.298c.527-3.522 9.453-10.839 11.786-13.494l12.308-14.011.873-.994c-.997 1.531-1.991 3.065-2.995 4.59-3.769 5.726-7.537 11.452-11.309 17.176-1.365 2.073-2.719 5.181-4.526 6.868l-2.263 3.434c-4.665-.511-5.957-1.701-3.874-3.569zM507.235 707.757c-.469-21.422-.912-42.859-1.699-64.272-.071-1.936-2.685-1.642-2.654.256.22 13.393.668 26.782 1.043 40.172.188 6.694.373 13.388.563 20.082.131 4.632.661 9.777.229 14.358l-1.166 6.168c-5.475 6.451-7.889 7.374-7.243 2.767-1.909-4.807.304-14.852.41-20.062l.409-20.062c.313-15.326.496-30.655.833-45.98.015-.678-.967-.947-.988-.208-.892 30.703-1.381 61.519-3.018 92.19-.035.657.395 1.766 1.285 1.568 12.748-2.846 12.228-16.366 11.996-26.977z" fill="#fff"/></svg>